G04 Layer_Color=8421504*
%FSLAX25Y25*%
%MOIN*%
G70*
G01*
G75*
%ADD10C,0.03100*%
%ADD11R,0.04331X0.01378*%
%ADD12O,0.04331X0.01378*%
%ADD13R,0.06693X0.07480*%
%ADD14R,0.06300X0.07100*%
%ADD15R,0.04400X0.04000*%
%ADD16R,0.03000X0.05000*%
%ADD17R,0.10500X0.10000*%
%ADD18R,0.06299X0.22441*%
%ADD19R,0.07100X0.06300*%
%ADD20R,0.01575X0.01969*%
%ADD21R,0.01181X0.01969*%
%ADD22R,0.01969X0.01575*%
%ADD23R,0.01969X0.01181*%
%ADD24R,0.02953X0.01969*%
%ADD25R,0.05118X0.01969*%
%ADD27R,0.01378X0.03150*%
%ADD28R,0.03150X0.01378*%
%ADD43R,0.03937X0.03937*%
D10*
X285820Y327650D02*
D03*
X290820Y322650D02*
D03*
X285820D02*
D03*
X280820Y327650D02*
D03*
Y322650D02*
D03*
X290820Y327650D02*
D03*
D11*
X241012Y433700D02*
D03*
X241500Y388512D02*
D03*
X242500Y343512D02*
D03*
X243500Y299512D02*
D03*
D12*
X241012Y436259D02*
D03*
Y438818D02*
D03*
Y441377D02*
D03*
X222508Y433700D02*
D03*
Y436259D02*
D03*
Y438818D02*
D03*
Y441377D02*
D03*
X241500Y391071D02*
D03*
Y393630D02*
D03*
Y396189D02*
D03*
X222996Y388512D02*
D03*
Y391071D02*
D03*
Y393630D02*
D03*
Y396189D02*
D03*
X242500Y346071D02*
D03*
Y348630D02*
D03*
Y351189D02*
D03*
X223996Y343512D02*
D03*
Y346071D02*
D03*
Y348630D02*
D03*
Y351189D02*
D03*
X243500Y302071D02*
D03*
Y304630D02*
D03*
Y307189D02*
D03*
X224996Y299512D02*
D03*
Y302071D02*
D03*
Y304630D02*
D03*
Y307189D02*
D03*
D13*
X231957Y437637D02*
D03*
X232445Y392449D02*
D03*
X233445Y347449D02*
D03*
X234445Y303449D02*
D03*
D14*
X240488Y284812D02*
D03*
X251600D02*
D03*
X239488Y328812D02*
D03*
X250600D02*
D03*
X238488Y373812D02*
D03*
X249600D02*
D03*
X238000Y419000D02*
D03*
X249112D02*
D03*
D15*
X270654Y411000D02*
D03*
X277400D02*
D03*
X269654Y389000D02*
D03*
X276400D02*
D03*
X282347Y362000D02*
D03*
X275600D02*
D03*
D16*
X203750Y285000D02*
D03*
X202750Y329000D02*
D03*
X201750Y374000D02*
D03*
X200750Y419000D02*
D03*
D17*
X213000Y285000D02*
D03*
X212000Y329000D02*
D03*
X211000Y374000D02*
D03*
X210000Y419000D02*
D03*
D18*
X196496Y305012D02*
D03*
X215000D02*
D03*
X195496Y349012D02*
D03*
X214000D02*
D03*
X194496Y394012D02*
D03*
X213000D02*
D03*
X194008Y439200D02*
D03*
X212512D02*
D03*
D19*
X225000Y290512D02*
D03*
Y279400D02*
D03*
X224000Y334512D02*
D03*
Y323400D02*
D03*
X223000Y379512D02*
D03*
Y368400D02*
D03*
X222512Y424700D02*
D03*
Y413588D02*
D03*
D20*
X294094Y287937D02*
D03*
Y284000D02*
D03*
X300000Y287937D02*
D03*
Y284000D02*
D03*
X277331Y404724D02*
D03*
X269850D02*
D03*
Y395276D02*
D03*
D21*
X296063Y287937D02*
D03*
Y284000D02*
D03*
X298031Y287937D02*
D03*
Y284000D02*
D03*
D22*
X295063Y298095D02*
D03*
X299000D02*
D03*
X295063Y304000D02*
D03*
X299000D02*
D03*
D23*
X295063Y300063D02*
D03*
X299000D02*
D03*
X295063Y302031D02*
D03*
X299000D02*
D03*
D24*
X273590Y404724D02*
D03*
D25*
X275559Y395276D02*
D03*
D27*
X283035Y354035D02*
D03*
X285595D02*
D03*
X288154D02*
D03*
X290713D02*
D03*
Y338287D02*
D03*
X288154D02*
D03*
X285595D02*
D03*
X283035D02*
D03*
D28*
X294748Y350000D02*
D03*
Y347441D02*
D03*
Y344882D02*
D03*
Y342323D02*
D03*
X279000D02*
D03*
Y344882D02*
D03*
Y347441D02*
D03*
Y350000D02*
D03*
D43*
X286874Y346063D02*
D03*
M02*
