G04 Layer_Physical_Order=1*
G04 Layer_Color=255*
%FSLAX25Y25*%
%MOIN*%
G70*
G01*
G75*
%ADD10C,0.03100*%
%ADD11R,0.04331X0.01378*%
%ADD12O,0.04331X0.01378*%
%ADD13R,0.06693X0.07480*%
%ADD14R,0.06300X0.07100*%
%ADD15R,0.04400X0.04000*%
%ADD16R,0.03000X0.05000*%
%ADD17R,0.10500X0.10000*%
%ADD18R,0.06299X0.22441*%
%ADD19R,0.07100X0.06300*%
%ADD20R,0.01575X0.01969*%
%ADD21R,0.01181X0.01969*%
%ADD22R,0.01969X0.01575*%
%ADD23R,0.01969X0.01181*%
%ADD24R,0.02953X0.01969*%
%ADD25R,0.05118X0.01969*%
%ADD26R,0.10630X0.10630*%
%ADD27R,0.01378X0.03150*%
%ADD28R,0.03150X0.01378*%
%ADD29C,0.00800*%
%ADD30C,0.01000*%
%ADD31C,0.00600*%
%ADD32C,0.02000*%
%ADD33C,0.05000*%
%ADD34C,0.01200*%
%ADD35C,0.02500*%
%ADD36C,0.03400*%
%ADD37C,0.07200*%
%ADD38R,0.07200X0.07200*%
%ADD39C,0.06000*%
%ADD40C,0.02800*%
G36*
X301000Y456000D02*
X301000Y348958D01*
X300538Y348767D01*
X298512Y350793D01*
X298148Y351036D01*
X297719Y351122D01*
X297719Y351121D01*
X296923D01*
Y351289D01*
X293189D01*
Y352378D01*
X292402D01*
Y353335D01*
X290713D01*
Y354035D01*
X290013D01*
Y356610D01*
X289024D01*
Y356210D01*
X287753D01*
X287544Y356710D01*
X287884Y357220D01*
X288039Y358000D01*
X287884Y358780D01*
X287442Y359442D01*
X286780Y359884D01*
X286000Y360039D01*
X285622Y359964D01*
X285146Y360440D01*
Y364600D01*
X281333D01*
X270775Y375157D01*
Y386400D01*
X272453D01*
Y391600D01*
X270972D01*
Y393691D01*
X271238D01*
Y396860D01*
X268463D01*
Y393691D01*
X268729D01*
Y391600D01*
X266853D01*
Y386400D01*
X268532D01*
Y374693D01*
X268532Y374693D01*
X268617Y374264D01*
X268861Y373900D01*
X277298Y365462D01*
X277107Y365000D01*
X276300D01*
Y362700D01*
X278800D01*
Y363118D01*
X279289Y363335D01*
X279546Y363130D01*
Y359400D01*
X281914D01*
Y356210D01*
X281747D01*
Y352378D01*
X280559D01*
Y351289D01*
X276982D01*
X276884Y351780D01*
X276442Y352442D01*
X275780Y352884D01*
X275000Y353039D01*
X274220Y352884D01*
X273558Y352442D01*
X273116Y351780D01*
X273022Y351307D01*
X272838Y350986D01*
X272479Y350944D01*
X272000Y351039D01*
X271220Y350884D01*
X270558Y350442D01*
X270116Y349780D01*
X269961Y349000D01*
X270116Y348220D01*
X270558Y347558D01*
X271220Y347116D01*
X272000Y346961D01*
X272378Y347036D01*
X272766Y346648D01*
X272766Y346648D01*
X272982Y346503D01*
X272831Y346003D01*
X270346D01*
X269917Y345918D01*
X269553Y345675D01*
X269553Y345675D01*
X267707Y343829D01*
X267464Y343465D01*
X267378Y343036D01*
X267378Y343036D01*
Y332470D01*
X267378Y332470D01*
X267464Y332040D01*
X267707Y331676D01*
X271848Y327535D01*
Y323030D01*
X271848Y323030D01*
X271933Y322601D01*
X272176Y322237D01*
X274207Y320207D01*
X274571Y319964D01*
X275000Y319878D01*
X275000Y319879D01*
X279170D01*
X279170Y319878D01*
X279599Y319964D01*
X279963Y320207D01*
X280314Y320558D01*
X280820Y320458D01*
X281490Y320591D01*
X281737Y320130D01*
X275770Y314164D01*
X274940Y314507D01*
X274000Y314631D01*
X273060Y314507D01*
X272184Y314145D01*
X271432Y313567D01*
X270855Y312815D01*
X270493Y311940D01*
X270369Y311000D01*
X270493Y310060D01*
X270855Y309185D01*
X271432Y308433D01*
X272184Y307855D01*
X273060Y307493D01*
X274000Y307369D01*
X274940Y307493D01*
X275816Y307855D01*
X276568Y308433D01*
X277145Y309185D01*
X277507Y310060D01*
X277631Y311000D01*
X277507Y311940D01*
X277145Y312815D01*
X277089Y312888D01*
X284018Y319817D01*
X284217Y320114D01*
X284391Y320208D01*
X284762Y320290D01*
X284824Y320248D01*
X285120Y320189D01*
Y322650D01*
X286520D01*
Y320189D01*
X286814Y320248D01*
X287011Y320379D01*
X287452Y320144D01*
Y315750D01*
X285833Y314131D01*
X285816Y314145D01*
X284940Y314507D01*
X284000Y314631D01*
X283060Y314507D01*
X282185Y314145D01*
X281433Y313567D01*
X280855Y312815D01*
X280493Y311940D01*
X280369Y311000D01*
X280493Y310060D01*
X280855Y309185D01*
X281433Y308433D01*
X282185Y307855D01*
X283060Y307493D01*
X284000Y307369D01*
X284940Y307493D01*
X285816Y307855D01*
X286567Y308433D01*
X287145Y309185D01*
X287507Y310060D01*
X287631Y311000D01*
X287507Y311940D01*
X287145Y312815D01*
X287131Y312833D01*
X289018Y314721D01*
X289217Y315018D01*
X289287Y315370D01*
Y318766D01*
X289749Y318958D01*
X290856Y317851D01*
X291154Y317652D01*
X291505Y317582D01*
X296917D01*
X297268Y317652D01*
X297566Y317851D01*
X300538Y320823D01*
X301000Y320632D01*
Y306281D01*
X300984Y305787D01*
X299700D01*
Y304000D01*
X298300D01*
Y305787D01*
X297016D01*
Y305705D01*
X296647Y305387D01*
X295713D01*
Y307276D01*
X296135Y307558D01*
X296577Y308220D01*
X296732Y309000D01*
X296577Y309780D01*
X296135Y310442D01*
X295474Y310884D01*
X294693Y311039D01*
X293913Y310884D01*
X293251Y310442D01*
X292809Y309780D01*
X292654Y309000D01*
X292809Y308220D01*
X293251Y307558D01*
X293617Y307314D01*
X293605Y306819D01*
X293174Y306589D01*
X293063Y306663D01*
X292673Y306741D01*
X290685D01*
X290295Y306663D01*
X289964Y306442D01*
X287479Y303958D01*
X287258Y303627D01*
X287180Y303237D01*
Y301590D01*
X286680Y301420D01*
X286567Y301568D01*
X285816Y302145D01*
X284940Y302507D01*
X284000Y302631D01*
X283060Y302507D01*
X282185Y302145D01*
X281433Y301568D01*
X280855Y300816D01*
X280493Y299940D01*
X280369Y299000D01*
X280493Y298060D01*
X280855Y297184D01*
X281433Y296432D01*
X282185Y295855D01*
X282980Y295526D01*
Y295192D01*
X283058Y294801D01*
X283279Y294471D01*
X284707Y293042D01*
X284474Y292569D01*
X284000Y292631D01*
X283060Y292507D01*
X282185Y292145D01*
X281433Y291567D01*
X280855Y290815D01*
X280493Y289940D01*
X280369Y289000D01*
X280493Y288060D01*
X280855Y287185D01*
X281433Y286433D01*
X282185Y285855D01*
X283060Y285493D01*
X284000Y285369D01*
X284940Y285493D01*
X285736Y285822D01*
X290263Y281295D01*
X290594Y281074D01*
X290984Y280996D01*
X294747D01*
X294938Y280534D01*
X293424Y279020D01*
X287629D01*
X287507Y279940D01*
X287145Y280816D01*
X286567Y281568D01*
X285816Y282145D01*
X284940Y282507D01*
X284000Y282631D01*
X283060Y282507D01*
X282185Y282145D01*
X281433Y281568D01*
X280855Y280816D01*
X280493Y279940D01*
X280369Y279000D01*
X280493Y278060D01*
X280855Y277185D01*
X281433Y276432D01*
X282185Y275855D01*
X283060Y275493D01*
X284000Y275369D01*
X284940Y275493D01*
X285816Y275855D01*
X286567Y276432D01*
X286988Y276980D01*
X292711D01*
X292902Y276519D01*
X287525Y271141D01*
X286861Y271184D01*
X286567Y271568D01*
X285816Y272145D01*
X284940Y272507D01*
X284000Y272631D01*
X283060Y272507D01*
X282185Y272145D01*
X281433Y271568D01*
X280855Y270815D01*
X280493Y269940D01*
X280369Y269000D01*
X280493Y268060D01*
X280725Y267500D01*
X280391Y267000D01*
X277951D01*
X277673Y267416D01*
X277897Y267956D01*
X277942Y268300D01*
X274000D01*
X270058D01*
X270103Y267956D01*
X270327Y267416D01*
X270049Y267000D01*
X259368Y267000D01*
X259198Y267500D01*
X259575Y267789D01*
X264711Y272925D01*
X264711Y272925D01*
X265208Y273573D01*
X265520Y274327D01*
X265627Y275136D01*
X265627Y275136D01*
Y313000D01*
Y359000D01*
Y409869D01*
X267853D01*
Y408400D01*
X269532D01*
Y406309D01*
X268463D01*
Y403140D01*
X268729D01*
Y402150D01*
X268729Y402150D01*
X268814Y401720D01*
X269057Y401357D01*
X271207Y399207D01*
X271207Y399207D01*
X271571Y398964D01*
X272000Y398878D01*
X272000Y398879D01*
X275000D01*
X275000Y398878D01*
X275429Y398964D01*
X275793Y399207D01*
X278124Y401538D01*
X278124Y401538D01*
X278367Y401901D01*
X278452Y402331D01*
X278452Y402331D01*
Y403140D01*
X278718D01*
Y406309D01*
X276067D01*
Y406709D01*
X274291D01*
Y404724D01*
X272891D01*
Y406709D01*
X271775D01*
Y408400D01*
X273453D01*
Y413600D01*
X267853D01*
Y413131D01*
X265627D01*
Y430005D01*
X276295Y440673D01*
X292176D01*
X292882Y440131D01*
X293904Y439708D01*
X295000Y439564D01*
X296096Y439708D01*
X297118Y440131D01*
X297995Y440804D01*
X298669Y441682D01*
X299092Y442704D01*
X299236Y443800D01*
X299092Y444896D01*
X298669Y445918D01*
X297995Y446796D01*
X297118Y447469D01*
X296096Y447892D01*
X295000Y448036D01*
X293904Y447892D01*
X292882Y447469D01*
X292176Y446927D01*
X275000D01*
X275000Y446927D01*
X274595Y446874D01*
X274191Y446820D01*
X273437Y446508D01*
X272789Y446011D01*
X260289Y433511D01*
X259792Y432863D01*
X259480Y432109D01*
X259373Y431300D01*
X259373Y431300D01*
Y415659D01*
X258789Y415211D01*
X258789Y415211D01*
X250705Y407127D01*
X243824D01*
X243724Y407627D01*
X243971Y407729D01*
X244161Y408188D01*
Y428682D01*
X244100Y428829D01*
X244085Y428988D01*
X244009Y429050D01*
X243971Y429141D01*
X243826Y429201D01*
X243823Y429202D01*
X243700Y429303D01*
X243466Y429374D01*
X243396Y429408D01*
X243551Y430188D01*
X243396Y430969D01*
X242954Y431630D01*
X242533Y431911D01*
X242685Y432411D01*
X243777D01*
Y434989D01*
X243777Y434989D01*
X243777D01*
X243959Y435421D01*
X244052Y435559D01*
X241012D01*
X237972D01*
X238060Y435427D01*
X238246Y434989D01*
X238246Y434989D01*
X238246Y434989D01*
Y432838D01*
X236779D01*
X236303Y432897D01*
X236303Y433338D01*
Y436937D01*
X231957D01*
Y437637D01*
D01*
Y436937D01*
X227610D01*
Y433338D01*
X227610Y432897D01*
X227135Y432838D01*
X225657D01*
Y433700D01*
X225467Y434159D01*
X225136Y434296D01*
X224914Y434629D01*
X224839Y434679D01*
Y435280D01*
X224914Y435330D01*
X225198Y435756D01*
X225299Y436259D01*
X225198Y436762D01*
X224914Y437188D01*
X224839Y437238D01*
Y437839D01*
X224914Y437889D01*
X225198Y438315D01*
X225299Y438818D01*
X225198Y439321D01*
X224914Y439747D01*
X224822Y439808D01*
X224898Y440188D01*
X224854Y440408D01*
X224914Y440448D01*
X225198Y440874D01*
X225299Y441377D01*
X225198Y441880D01*
X224914Y442307D01*
X224487Y442591D01*
X223984Y442691D01*
X221031D01*
X221000Y442717D01*
Y456000D01*
X301000Y456000D01*
D02*
G37*
G36*
X225008Y432188D02*
X239890D01*
Y431361D01*
X239628Y430969D01*
X239473Y430188D01*
X239628Y429408D01*
X240070Y428746D01*
X240731Y428304D01*
X241512Y428149D01*
X242292Y428304D01*
X242954Y428746D01*
X243012Y428833D01*
X243512Y428682D01*
Y408188D01*
X229805D01*
X229451Y408688D01*
X229551Y409188D01*
X229396Y409969D01*
X228954Y410630D01*
X228292Y411072D01*
X227512Y411227D01*
X227162Y411158D01*
X226662Y411568D01*
Y417338D01*
X218362D01*
Y413860D01*
X216817Y412315D01*
X204000D01*
Y413000D01*
X207500D01*
Y419000D01*
Y425000D01*
X204000D01*
Y432477D01*
X208762D01*
Y427380D01*
X216261D01*
Y432477D01*
X218735D01*
X219512Y432188D01*
X220008D01*
Y433700D01*
X225008D01*
Y432188D01*
D02*
G37*
G36*
X208362Y450000D02*
Y440950D01*
X212512D01*
Y437450D01*
X208362D01*
Y433126D01*
X204000D01*
X203541Y432936D01*
X203351Y432477D01*
Y425000D01*
X203541Y424541D01*
X204000Y424351D01*
Y413649D01*
X203541Y413459D01*
X203351Y413000D01*
X197000D01*
Y427380D01*
X197757D01*
Y450000D01*
X208362Y450000D01*
D02*
G37*
G36*
X225509Y409005D02*
X225628Y408408D01*
X226070Y407746D01*
X226731Y407304D01*
X227512Y407149D01*
X228292Y407304D01*
X228861Y407685D01*
X229345Y407729D01*
X229528Y407654D01*
X229694Y407548D01*
X229751Y407561D01*
X229805Y407539D01*
X234873D01*
Y407000D01*
X234873Y407000D01*
X234980Y406191D01*
X235292Y405437D01*
X235789Y404789D01*
X238789Y401789D01*
X239437Y401292D01*
X240191Y400980D01*
X241000Y400873D01*
X252000D01*
X252000Y400873D01*
X252809Y400980D01*
X253563Y401292D01*
X254211Y401789D01*
X258911Y406489D01*
X259373Y406298D01*
Y362127D01*
X244699D01*
X244495Y362627D01*
X244649Y363000D01*
Y366803D01*
X244624Y366864D01*
X244637Y366930D01*
X244623Y367000D01*
X244637Y367070D01*
X244624Y367136D01*
X244649Y367197D01*
Y380803D01*
X244624Y380865D01*
X244637Y380930D01*
X244623Y381000D01*
X244637Y381070D01*
X244624Y381136D01*
X244649Y381197D01*
Y383493D01*
X244588Y383641D01*
X244573Y383799D01*
X244497Y383862D01*
X244459Y383952D01*
X244314Y384013D01*
X244311Y384014D01*
X244188Y384115D01*
X243954Y384186D01*
X243884Y384220D01*
X244039Y385000D01*
X243884Y385780D01*
X243442Y386442D01*
X243021Y386723D01*
X243173Y387223D01*
X244265D01*
Y389801D01*
X244265Y389801D01*
X244265D01*
X244448Y390233D01*
X244540Y390371D01*
X241500D01*
X238460D01*
X238549Y390238D01*
X238735Y389801D01*
X238735Y389801D01*
X238735Y389801D01*
Y387649D01*
X237267D01*
X236791Y387709D01*
X236791Y388149D01*
Y391749D01*
X232445D01*
X228098D01*
Y388149D01*
X228098Y387709D01*
X227623Y387649D01*
X226146D01*
Y388512D01*
X225955Y388971D01*
X225624Y389108D01*
X225402Y389441D01*
X225328Y389491D01*
Y390092D01*
X225402Y390142D01*
X225687Y390568D01*
X225787Y391071D01*
X225687Y391574D01*
X225402Y392000D01*
X225328Y392050D01*
Y392651D01*
X225402Y392701D01*
X225687Y393127D01*
X225787Y393630D01*
X225687Y394133D01*
X225402Y394559D01*
X225311Y394620D01*
X225386Y395000D01*
X225342Y395220D01*
X225402Y395260D01*
X225687Y395686D01*
X225787Y396189D01*
X225687Y396692D01*
X225402Y397118D01*
X224975Y397403D01*
X224472Y397503D01*
X221520D01*
X221500Y397499D01*
X221000Y397910D01*
Y407654D01*
X223184Y409838D01*
X224676D01*
X225509Y409005D01*
D02*
G37*
G36*
X225496Y387000D02*
X240378D01*
Y386173D01*
X240116Y385780D01*
X239961Y385000D01*
X240116Y384220D01*
X240558Y383558D01*
X241220Y383116D01*
X242000Y382961D01*
X242780Y383116D01*
X243442Y383558D01*
X243500Y383645D01*
X244000Y383493D01*
Y381197D01*
X243961Y381000D01*
X244000Y380803D01*
Y367197D01*
X243961Y367000D01*
X244000Y366803D01*
Y363000D01*
X230293D01*
X229940Y363500D01*
X230039Y364000D01*
X229884Y364780D01*
X229442Y365442D01*
X228780Y365884D01*
X228000Y366039D01*
X227650Y365970D01*
X227150Y366380D01*
Y372150D01*
X218850D01*
Y368672D01*
X218217Y368039D01*
X217250D01*
Y371500D01*
X211000D01*
Y374000D01*
X208500D01*
Y380000D01*
X205000D01*
Y387288D01*
X209250D01*
Y382191D01*
X216750D01*
Y387288D01*
X219223D01*
X220000Y387000D01*
X220496D01*
Y388512D01*
X225496D01*
Y387000D01*
D02*
G37*
G36*
X208850Y405000D02*
Y395762D01*
X213000D01*
Y392262D01*
X208850D01*
Y387938D01*
X205000D01*
X204541Y387748D01*
X204351Y387288D01*
Y380000D01*
X204541Y379541D01*
X205000Y379351D01*
Y368039D01*
X198000D01*
Y382191D01*
X198246D01*
Y405000D01*
X208850Y405000D01*
D02*
G37*
G36*
X225997Y363817D02*
X226116Y363220D01*
X226558Y362558D01*
X227220Y362116D01*
X228000Y361961D01*
X228780Y362116D01*
X229349Y362496D01*
X229834Y362541D01*
X230016Y362465D01*
X230183Y362360D01*
X230239Y362373D01*
X230293Y362351D01*
X235383D01*
X235468Y361703D01*
X235780Y360948D01*
X236277Y360301D01*
X239789Y356789D01*
X240437Y356292D01*
X241191Y355980D01*
X242000Y355873D01*
X242000Y355873D01*
X259373D01*
Y316127D01*
X245295D01*
X244533Y316889D01*
X244725Y317351D01*
X245000D01*
X245459Y317541D01*
X245649Y318000D01*
Y321803D01*
X245624Y321865D01*
X245637Y321930D01*
X245623Y322000D01*
X245637Y322070D01*
X245624Y322135D01*
X245649Y322197D01*
Y334803D01*
X245624Y334864D01*
X245637Y334930D01*
X245623Y335000D01*
X245637Y335070D01*
X245624Y335136D01*
X245649Y335197D01*
Y338493D01*
X245588Y338641D01*
X245573Y338799D01*
X245497Y338862D01*
X245459Y338952D01*
X245314Y339013D01*
X245311Y339014D01*
X245188Y339115D01*
X244954Y339186D01*
X244884Y339220D01*
X245039Y340000D01*
X244884Y340780D01*
X244442Y341442D01*
X244022Y341723D01*
X244173Y342223D01*
X245265D01*
Y344801D01*
X245265Y344801D01*
X245265D01*
X245448Y345233D01*
X245540Y345371D01*
X242500D01*
X239460D01*
X239549Y345238D01*
X239735Y344801D01*
X239735Y344801D01*
X239735Y344801D01*
Y342649D01*
X238267D01*
X237791Y342709D01*
X237791Y343149D01*
Y346749D01*
X233445D01*
X229098D01*
Y343149D01*
X229098Y342709D01*
X228623Y342649D01*
X227146D01*
Y343512D01*
X226955Y343971D01*
X226624Y344108D01*
X226402Y344441D01*
X226328Y344491D01*
Y345092D01*
X226402Y345142D01*
X226687Y345568D01*
X226787Y346071D01*
X226687Y346574D01*
X226402Y347000D01*
X226328Y347050D01*
Y347651D01*
X226402Y347701D01*
X226687Y348127D01*
X226787Y348630D01*
X226687Y349133D01*
X226402Y349559D01*
X226311Y349620D01*
X226386Y350000D01*
X226343Y350220D01*
X226402Y350260D01*
X226687Y350686D01*
X226787Y351189D01*
X226687Y351692D01*
X226402Y352118D01*
X225975Y352403D01*
X225472Y352503D01*
X222520D01*
X222017Y352403D01*
X221590Y352118D01*
X221500Y351983D01*
X221000Y352065D01*
Y362173D01*
X221075Y362204D01*
X221723Y362701D01*
X223672Y364650D01*
X225164D01*
X225997Y363817D01*
D02*
G37*
G36*
X226496Y342000D02*
X241378D01*
Y341173D01*
X241116Y340780D01*
X240961Y340000D01*
X241116Y339220D01*
X241558Y338558D01*
X242220Y338116D01*
X243000Y337961D01*
X243780Y338116D01*
X244442Y338558D01*
X244500Y338645D01*
X245000Y338493D01*
Y335197D01*
X244961Y335000D01*
X245000Y334803D01*
Y322197D01*
X244961Y322000D01*
X245000Y321803D01*
Y318000D01*
X231293D01*
X230940Y318500D01*
X231039Y319000D01*
X230884Y319780D01*
X230442Y320442D01*
X229780Y320884D01*
X229000Y321039D01*
X228650Y320970D01*
X228150Y321380D01*
Y327150D01*
X219850D01*
Y324695D01*
X218712Y323557D01*
X218250Y323748D01*
Y326500D01*
X212000D01*
Y329000D01*
X209500D01*
Y335000D01*
X206000D01*
Y342288D01*
X210250D01*
Y337191D01*
X217750D01*
Y342288D01*
X220223D01*
X221000Y342000D01*
X221496D01*
Y343512D01*
X226496D01*
Y342000D01*
D02*
G37*
G36*
X276825Y341034D02*
X280559D01*
Y339748D01*
X281747D01*
Y336868D01*
X281000Y336122D01*
X278656D01*
X278442Y336442D01*
X277780Y336884D01*
X277000Y337039D01*
X276220Y336884D01*
X275558Y336442D01*
X275116Y335780D01*
X274961Y335000D01*
X275116Y334220D01*
X275558Y333558D01*
X276220Y333116D01*
X277000Y332961D01*
X277780Y333116D01*
X278442Y333558D01*
X278656Y333878D01*
X281464D01*
X281465Y333878D01*
X281475Y333880D01*
X282057Y333517D01*
X282116Y333220D01*
X282558Y332558D01*
X282817Y332385D01*
X282880Y331741D01*
X280954Y329815D01*
X280820Y329842D01*
X279981Y329675D01*
X279269Y329200D01*
X278794Y328489D01*
X278627Y327650D01*
X278794Y326811D01*
X279269Y326100D01*
X279981Y325625D01*
X280820Y325458D01*
X281658Y325625D01*
X281952Y325821D01*
X282452Y325554D01*
Y324746D01*
X281952Y324479D01*
X281658Y324675D01*
X280820Y324842D01*
X279981Y324675D01*
X279269Y324200D01*
X278794Y323489D01*
X278627Y322650D01*
X278633Y322622D01*
X278223Y322122D01*
X275658D01*
X275525Y322303D01*
X275814Y322755D01*
X275819Y322754D01*
X276736Y322936D01*
X277514Y323456D01*
X278033Y324233D01*
X278216Y325150D01*
X278033Y326067D01*
X277514Y326844D01*
X276736Y327364D01*
X275819Y327546D01*
X274903Y327364D01*
X274591Y327155D01*
X274091Y327423D01*
Y328000D01*
X274091Y328000D01*
X274006Y328429D01*
X273763Y328793D01*
X273762Y328793D01*
X269621Y332934D01*
Y339985D01*
X270062Y340221D01*
X270220Y340116D01*
X271000Y339961D01*
X271780Y340116D01*
X272442Y340558D01*
X272872Y341201D01*
X276825D01*
Y341034D01*
D02*
G37*
G36*
X296923D02*
X297306Y340753D01*
X297437Y340558D01*
X298098Y340116D01*
X298879Y339961D01*
X299659Y340116D01*
X299816Y340221D01*
X300257Y339985D01*
Y334122D01*
X299757Y333970D01*
X299442Y334442D01*
X298780Y334884D01*
X298605Y334919D01*
X298429Y335036D01*
X298000Y335121D01*
X297571Y335036D01*
X297395Y334919D01*
X297220Y334884D01*
X296558Y334442D01*
X296344Y334121D01*
X294205D01*
X294205Y334122D01*
X294195Y334120D01*
X293613Y334483D01*
X293553Y334780D01*
X293111Y335442D01*
X292545Y335821D01*
X292390Y336052D01*
X292002Y336440D01*
Y339748D01*
X293189D01*
Y341034D01*
X296923D01*
D02*
G37*
G36*
X209850Y360000D02*
Y350762D01*
X214000D01*
Y347262D01*
X209850D01*
Y342938D01*
X206000D01*
X205541Y342747D01*
X205351Y342288D01*
Y335000D01*
X205541Y334541D01*
X206000Y334351D01*
Y323039D01*
X199000D01*
Y337191D01*
X199246D01*
Y360000D01*
X209850Y360000D01*
D02*
G37*
G36*
X226997Y318817D02*
X227116Y318220D01*
X227558Y317558D01*
X228220Y317116D01*
X229000Y316961D01*
X229780Y317116D01*
X230349Y317496D01*
X230834Y317541D01*
X231016Y317465D01*
X231183Y317360D01*
X231239Y317373D01*
X231293Y317351D01*
X236383D01*
X236468Y316703D01*
X236780Y315948D01*
X237277Y315301D01*
X241789Y310789D01*
X241789Y310789D01*
X242437Y310292D01*
X243191Y309980D01*
X244000Y309873D01*
X259373D01*
Y276431D01*
X256069Y273127D01*
X247295D01*
X246583Y273839D01*
X246649Y274000D01*
Y277803D01*
X246624Y277865D01*
X246637Y277930D01*
X246623Y278000D01*
X246637Y278070D01*
X246624Y278135D01*
X246649Y278197D01*
Y291803D01*
X246624Y291864D01*
X246637Y291930D01*
X246623Y292000D01*
X246637Y292070D01*
X246624Y292136D01*
X246649Y292197D01*
Y294493D01*
X246588Y294641D01*
X246573Y294799D01*
X246497Y294862D01*
X246459Y294953D01*
X246314Y295013D01*
X246311Y295014D01*
X246188Y295115D01*
X245954Y295186D01*
X245884Y295220D01*
X246039Y296000D01*
X245884Y296780D01*
X245442Y297442D01*
X245022Y297723D01*
X245173Y298223D01*
X246265D01*
Y300801D01*
X246265Y300801D01*
X246265D01*
X246448Y301233D01*
X246540Y301371D01*
X243500D01*
X240460D01*
X240549Y301238D01*
X240735Y300801D01*
X240735Y300801D01*
X240735Y300801D01*
Y298649D01*
X239267D01*
X238791Y298709D01*
X238791Y299149D01*
Y302749D01*
X234445D01*
X230098D01*
Y299149D01*
X230098Y298709D01*
X229623Y298649D01*
X228146D01*
Y299512D01*
X227955Y299971D01*
X227624Y300108D01*
X227402Y300441D01*
X227328Y300491D01*
Y301092D01*
X227402Y301142D01*
X227687Y301568D01*
X227787Y302071D01*
X227687Y302574D01*
X227402Y303000D01*
X227328Y303050D01*
Y303651D01*
X227402Y303701D01*
X227687Y304127D01*
X227787Y304630D01*
X227687Y305133D01*
X227402Y305559D01*
X227311Y305620D01*
X227386Y306000D01*
X227343Y306220D01*
X227402Y306260D01*
X227687Y306686D01*
X227787Y307189D01*
X227687Y307692D01*
X227402Y308118D01*
X226975Y308403D01*
X226472Y308503D01*
X223520D01*
X223017Y308403D01*
X222590Y308118D01*
X222435Y307886D01*
X221500D01*
X221387Y307864D01*
X221000Y308181D01*
Y317182D01*
X221052Y317204D01*
X221700Y317701D01*
X223649Y319650D01*
X226164D01*
X226997Y318817D01*
D02*
G37*
G36*
X210850Y316000D02*
Y306762D01*
X215000D01*
Y303262D01*
X210850D01*
Y298288D01*
X207000D01*
Y279039D01*
X200000D01*
Y293191D01*
X200246D01*
Y316000D01*
X210850Y316000D01*
D02*
G37*
G36*
X227496Y298000D02*
X242378D01*
Y297173D01*
X242116Y296780D01*
X241961Y296000D01*
X242116Y295220D01*
X242558Y294558D01*
X243220Y294116D01*
X244000Y293961D01*
X244780Y294116D01*
X245442Y294558D01*
X245500Y294645D01*
X246000Y294493D01*
Y292197D01*
X245961Y292000D01*
X246000Y291803D01*
Y278197D01*
X245961Y278000D01*
X246000Y277803D01*
Y274000D01*
X232293D01*
X231940Y274500D01*
X232039Y275000D01*
X231884Y275780D01*
X231442Y276442D01*
X230780Y276884D01*
X230000Y277039D01*
X229650Y276970D01*
X229150Y277380D01*
Y283150D01*
X220850D01*
Y279672D01*
X220217Y279039D01*
X219250D01*
Y282500D01*
X213000D01*
Y285000D01*
X210500D01*
Y291000D01*
X207649D01*
Y297639D01*
X210850D01*
X211250Y297372D01*
Y293191D01*
X218750D01*
Y298288D01*
X221223D01*
X222000Y298000D01*
X222496D01*
Y299512D01*
X227496D01*
Y298000D01*
D02*
G37*
G36*
X227997Y274817D02*
X228116Y274220D01*
X228558Y273558D01*
X229220Y273116D01*
X230000Y272961D01*
X230780Y273116D01*
X231349Y273496D01*
X231834Y273541D01*
X232016Y273465D01*
X232183Y273360D01*
X232239Y273373D01*
X232293Y273351D01*
X238228D01*
X243789Y267789D01*
X244166Y267500D01*
X243996Y267000D01*
X221000D01*
Y272785D01*
X221512D01*
X221512Y272785D01*
X221916Y272838D01*
X222321Y272892D01*
X223075Y273204D01*
X223723Y273701D01*
X225672Y275650D01*
X227164D01*
X227997Y274817D01*
D02*
G37*
G36*
X300988Y281232D02*
X301000Y281227D01*
Y267000D01*
X300344D01*
X300000Y267034D01*
X299656Y267000D01*
X287609D01*
X287275Y267500D01*
X287507Y268060D01*
X287534Y268267D01*
X300343Y281075D01*
X300500Y281310D01*
X300988Y281232D01*
D02*
G37*
%LPC*%
G36*
X241000Y446918D02*
X240220Y446762D01*
X239558Y446320D01*
X239116Y445659D01*
X238961Y444878D01*
X239116Y444098D01*
X239558Y443436D01*
X239890Y443215D01*
Y442691D01*
X239535D01*
X239033Y442591D01*
X238606Y442307D01*
X238321Y441880D01*
X238221Y441377D01*
X238321Y440874D01*
X238430Y440712D01*
X238355Y440060D01*
X238318Y440036D01*
X237972Y439518D01*
X241012D01*
X244052D01*
X243706Y440036D01*
X243669Y440060D01*
X243594Y440712D01*
X243702Y440874D01*
X243802Y441377D01*
X243702Y441880D01*
X243418Y442307D01*
X242991Y442591D01*
X242488Y442691D01*
X242133D01*
Y443230D01*
X242442Y443436D01*
X242884Y444098D01*
X243039Y444878D01*
X242884Y445659D01*
X242442Y446320D01*
X241780Y446762D01*
X241000Y446918D01*
D02*
G37*
G36*
X236303Y442377D02*
X232657D01*
Y438337D01*
X236303D01*
Y442377D01*
D02*
G37*
G36*
X231257D02*
X227610D01*
Y438337D01*
X231257D01*
Y442377D01*
D02*
G37*
G36*
X244052Y438118D02*
X241012D01*
X237972D01*
X238318Y437601D01*
Y437477D01*
X237972Y436959D01*
X241012D01*
X244052D01*
X243706Y437477D01*
Y437601D01*
X244052Y438118D01*
D02*
G37*
G36*
X299600Y434600D02*
X295700D01*
Y430700D01*
X299600D01*
Y434600D01*
D02*
G37*
G36*
X294300D02*
X290400D01*
Y430700D01*
X294300D01*
Y434600D01*
D02*
G37*
G36*
X299600Y429300D02*
X295700D01*
Y425400D01*
X299600D01*
Y429300D01*
D02*
G37*
G36*
X294300D02*
X290400D01*
Y425400D01*
X294300D01*
Y429300D01*
D02*
G37*
G36*
X253262Y423550D02*
X249812D01*
Y419700D01*
X253262D01*
Y423550D01*
D02*
G37*
G36*
X248412D02*
X244962D01*
Y419700D01*
X248412D01*
Y423550D01*
D02*
G37*
G36*
X253262Y418300D02*
X249812D01*
Y414450D01*
X253262D01*
Y418300D01*
D02*
G37*
G36*
X248412D02*
X244962D01*
Y414450D01*
X248412D01*
Y418300D01*
D02*
G37*
G36*
X295700Y415942D02*
Y412700D01*
X298942D01*
X298897Y413044D01*
X298494Y414017D01*
X297853Y414853D01*
X297017Y415494D01*
X296044Y415897D01*
X295700Y415942D01*
D02*
G37*
G36*
X294300D02*
X293956Y415897D01*
X292983Y415494D01*
X292147Y414853D01*
X291506Y414017D01*
X291103Y413044D01*
X291058Y412700D01*
X294300D01*
Y415942D01*
D02*
G37*
G36*
X280600Y414000D02*
X278100D01*
Y411700D01*
X280600D01*
Y414000D01*
D02*
G37*
G36*
X276700D02*
X274200D01*
Y411700D01*
X276700D01*
Y414000D01*
D02*
G37*
G36*
X298942Y411300D02*
X295700D01*
Y408058D01*
X296044Y408103D01*
X297017Y408506D01*
X297853Y409147D01*
X298494Y409983D01*
X298897Y410956D01*
X298942Y411300D01*
D02*
G37*
G36*
X294300D02*
X291058D01*
X291103Y410956D01*
X291506Y409983D01*
X292147Y409147D01*
X292983Y408506D01*
X293956Y408103D01*
X294300Y408058D01*
Y411300D01*
D02*
G37*
G36*
X280600Y410300D02*
X278100D01*
Y408000D01*
X280600D01*
Y410300D01*
D02*
G37*
G36*
X276700D02*
X274200D01*
Y408000D01*
X276700D01*
Y410300D01*
D02*
G37*
G36*
X295000Y405631D02*
X294060Y405507D01*
X293184Y405145D01*
X292432Y404567D01*
X291855Y403816D01*
X291493Y402940D01*
X291369Y402000D01*
X291493Y401060D01*
X291855Y400184D01*
X292432Y399432D01*
X293184Y398855D01*
X294060Y398493D01*
X295000Y398369D01*
X295940Y398493D01*
X296815Y398855D01*
X297568Y399432D01*
X298145Y400184D01*
X298507Y401060D01*
X298631Y402000D01*
X298507Y402940D01*
X298145Y403816D01*
X297568Y404567D01*
X296815Y405145D01*
X295940Y405507D01*
X295000Y405631D01*
D02*
G37*
G36*
X279118Y397260D02*
X276259D01*
Y395976D01*
X279118D01*
Y397260D01*
D02*
G37*
G36*
X274859D02*
X272000D01*
Y395976D01*
X274859D01*
Y397260D01*
D02*
G37*
G36*
X279118Y394576D02*
X276259D01*
Y393291D01*
X279118D01*
Y394576D01*
D02*
G37*
G36*
X274859D02*
X272000D01*
Y393291D01*
X274859D01*
Y394576D01*
D02*
G37*
G36*
X279600Y392000D02*
X277100D01*
Y389700D01*
X279600D01*
Y392000D01*
D02*
G37*
G36*
X275700D02*
X273200D01*
Y389700D01*
X275700D01*
Y392000D01*
D02*
G37*
G36*
X295000Y395631D02*
X294060Y395507D01*
X293184Y395145D01*
X292432Y394567D01*
X291855Y393815D01*
X291493Y392940D01*
X291369Y392000D01*
X291493Y391060D01*
X291855Y390184D01*
X292432Y389433D01*
X293184Y388855D01*
X294060Y388493D01*
X295000Y388369D01*
X295940Y388493D01*
X296815Y388855D01*
X297568Y389433D01*
X298145Y390184D01*
X298507Y391060D01*
X298631Y392000D01*
X298507Y392940D01*
X298145Y393815D01*
X297568Y394567D01*
X296815Y395145D01*
X295940Y395507D01*
X295000Y395631D01*
D02*
G37*
G36*
X279600Y388300D02*
X277100D01*
Y386000D01*
X279600D01*
Y388300D01*
D02*
G37*
G36*
X275700D02*
X273200D01*
Y386000D01*
X275700D01*
Y388300D01*
D02*
G37*
G36*
X295000Y385631D02*
X294060Y385507D01*
X293184Y385145D01*
X292432Y384567D01*
X291855Y383816D01*
X291493Y382940D01*
X291369Y382000D01*
X291493Y381060D01*
X291855Y380185D01*
X292432Y379433D01*
X293184Y378855D01*
X294060Y378493D01*
X295000Y378369D01*
X295940Y378493D01*
X296815Y378855D01*
X297568Y379433D01*
X298145Y380185D01*
X298507Y381060D01*
X298631Y382000D01*
X298507Y382940D01*
X298145Y383816D01*
X297568Y384567D01*
X296815Y385145D01*
X295940Y385507D01*
X295000Y385631D01*
D02*
G37*
G36*
Y375631D02*
X294060Y375507D01*
X293184Y375145D01*
X292432Y374568D01*
X291855Y373815D01*
X291493Y372940D01*
X291369Y372000D01*
X291493Y371060D01*
X291855Y370184D01*
X292432Y369432D01*
X293184Y368855D01*
X294060Y368493D01*
X295000Y368369D01*
X295940Y368493D01*
X296815Y368855D01*
X297568Y369432D01*
X298145Y370184D01*
X298507Y371060D01*
X298631Y372000D01*
X298507Y372940D01*
X298145Y373815D01*
X297568Y374568D01*
X296815Y375145D01*
X295940Y375507D01*
X295000Y375631D01*
D02*
G37*
G36*
X274900Y365000D02*
X272400D01*
Y362700D01*
X274900D01*
Y365000D01*
D02*
G37*
G36*
X278800Y361300D02*
X276300D01*
Y359000D01*
X278800D01*
Y361300D01*
D02*
G37*
G36*
X274900D02*
X272400D01*
Y359000D01*
X274900D01*
Y361300D01*
D02*
G37*
G36*
X292402Y356610D02*
X291413D01*
Y354735D01*
X292402D01*
Y356610D01*
D02*
G37*
G36*
X274700Y302942D02*
Y299700D01*
X277942D01*
X277897Y300044D01*
X277494Y301017D01*
X276853Y301853D01*
X276017Y302494D01*
X275044Y302897D01*
X274700Y302942D01*
D02*
G37*
G36*
X273300D02*
X272956Y302897D01*
X271983Y302494D01*
X271147Y301853D01*
X270506Y301017D01*
X270103Y300044D01*
X270058Y299700D01*
X273300D01*
Y302942D01*
D02*
G37*
G36*
X277942Y298300D02*
X274700D01*
Y295058D01*
X275044Y295103D01*
X276017Y295506D01*
X276853Y296147D01*
X277494Y296983D01*
X277897Y297956D01*
X277942Y298300D01*
D02*
G37*
G36*
X273300D02*
X270058D01*
X270103Y297956D01*
X270506Y296983D01*
X271147Y296147D01*
X271983Y295506D01*
X272956Y295103D01*
X273300Y295058D01*
Y298300D01*
D02*
G37*
G36*
X274700Y292942D02*
Y289700D01*
X277942D01*
X277897Y290044D01*
X277494Y291017D01*
X276853Y291853D01*
X276017Y292494D01*
X275044Y292897D01*
X274700Y292942D01*
D02*
G37*
G36*
X273300D02*
X272956Y292897D01*
X271983Y292494D01*
X271147Y291853D01*
X270506Y291017D01*
X270103Y290044D01*
X270058Y289700D01*
X273300D01*
Y292942D01*
D02*
G37*
G36*
X277942Y288300D02*
X274700D01*
Y285058D01*
X275044Y285103D01*
X276017Y285506D01*
X276853Y286147D01*
X277494Y286983D01*
X277897Y287956D01*
X277942Y288300D01*
D02*
G37*
G36*
X273300D02*
X270058D01*
X270103Y287956D01*
X270506Y286983D01*
X271147Y286147D01*
X271983Y285506D01*
X272956Y285103D01*
X273300Y285058D01*
Y288300D01*
D02*
G37*
G36*
X274700Y282942D02*
Y279700D01*
X277942D01*
X277897Y280044D01*
X277494Y281017D01*
X276853Y281853D01*
X276017Y282494D01*
X275044Y282897D01*
X274700Y282942D01*
D02*
G37*
G36*
X273300D02*
X272956Y282897D01*
X271983Y282494D01*
X271147Y281853D01*
X270506Y281017D01*
X270103Y280044D01*
X270058Y279700D01*
X273300D01*
Y282942D01*
D02*
G37*
G36*
X277942Y278300D02*
X274700D01*
Y275058D01*
X275044Y275103D01*
X276017Y275506D01*
X276853Y276147D01*
X277494Y276983D01*
X277897Y277956D01*
X277942Y278300D01*
D02*
G37*
G36*
X273300D02*
X270058D01*
X270103Y277956D01*
X270506Y276983D01*
X271147Y276147D01*
X271983Y275506D01*
X272956Y275103D01*
X273300Y275058D01*
Y278300D01*
D02*
G37*
G36*
X274700Y272942D02*
Y269700D01*
X277942D01*
X277897Y270044D01*
X277494Y271017D01*
X276853Y271853D01*
X276017Y272494D01*
X275044Y272897D01*
X274700Y272942D01*
D02*
G37*
G36*
X273300D02*
X272956Y272897D01*
X271983Y272494D01*
X271147Y271853D01*
X270506Y271017D01*
X270103Y270044D01*
X270058Y269700D01*
X273300D01*
Y272942D01*
D02*
G37*
G36*
X227062Y428850D02*
X225012D01*
Y427200D01*
X227062D01*
Y428850D01*
D02*
G37*
G36*
X220012D02*
X217962D01*
Y427200D01*
X220012D01*
Y428850D01*
D02*
G37*
G36*
X216250Y425000D02*
X212500D01*
Y421500D01*
X216250D01*
Y425000D01*
D02*
G37*
G36*
X242150Y423550D02*
X240500D01*
Y421500D01*
X242150D01*
Y423550D01*
D02*
G37*
G36*
X235500D02*
X233850D01*
Y421500D01*
X235500D01*
Y423550D01*
D02*
G37*
G36*
X227062Y422200D02*
X225012D01*
Y420550D01*
X227062D01*
Y422200D01*
D02*
G37*
G36*
X220012D02*
X217962D01*
Y420550D01*
X220012D01*
Y422200D01*
D02*
G37*
G36*
X242150Y416500D02*
X240500D01*
Y414450D01*
X242150D01*
Y416500D01*
D02*
G37*
G36*
X235500D02*
X233850D01*
Y414450D01*
X235500D01*
Y416500D01*
D02*
G37*
G36*
X216250D02*
X212500D01*
Y413000D01*
X216250D01*
Y416500D01*
D02*
G37*
G36*
X203250Y422500D02*
X202500D01*
Y420750D01*
X203250D01*
Y422500D01*
D02*
G37*
G36*
X199000D02*
X198250D01*
Y420750D01*
X199000D01*
Y422500D01*
D02*
G37*
G36*
X203250Y417250D02*
X202500D01*
Y415500D01*
X203250D01*
Y417250D01*
D02*
G37*
G36*
X199000D02*
X198250D01*
Y415500D01*
X199000D01*
Y417250D01*
D02*
G37*
G36*
X248000Y399039D02*
X247220Y398884D01*
X246558Y398442D01*
X246116Y397780D01*
X246084Y397621D01*
X244965D01*
X244535Y397536D01*
X244198Y397310D01*
X243618D01*
X243479Y397403D01*
X242976Y397503D01*
X240024D01*
X239521Y397403D01*
X239094Y397118D01*
X238809Y396692D01*
X238709Y396189D01*
X238809Y395686D01*
X238918Y395524D01*
X238843Y394872D01*
X238806Y394848D01*
X238460Y394330D01*
X241500D01*
X244540D01*
X244381Y394567D01*
X244649Y395067D01*
X244653D01*
X244654Y395067D01*
X245083Y395153D01*
X245420Y395378D01*
X246619D01*
X246839Y395232D01*
X247135Y395173D01*
X247220Y395116D01*
X248000Y394961D01*
X248780Y395116D01*
X249442Y395558D01*
X249884Y396220D01*
X250039Y397000D01*
X249884Y397780D01*
X249442Y398442D01*
X248780Y398884D01*
X248000Y399039D01*
D02*
G37*
G36*
X236791Y397189D02*
X233145D01*
Y393149D01*
X236791D01*
Y397189D01*
D02*
G37*
G36*
X231745D02*
X228098D01*
Y393149D01*
X231745D01*
Y397189D01*
D02*
G37*
G36*
X244540Y392930D02*
X241500D01*
X238460D01*
X238585Y392742D01*
X238776Y392350D01*
X238585Y391958D01*
X238460Y391771D01*
X241500D01*
X244540D01*
X244415Y391958D01*
X244224Y392350D01*
X244415Y392742D01*
X244540Y392930D01*
D02*
G37*
G36*
X253750Y378362D02*
X250300D01*
Y374512D01*
X253750D01*
Y378362D01*
D02*
G37*
G36*
X248900D02*
X245450D01*
Y374512D01*
X248900D01*
Y378362D01*
D02*
G37*
G36*
X253750Y373112D02*
X250300D01*
Y369262D01*
X253750D01*
Y373112D01*
D02*
G37*
G36*
X248900D02*
X245450D01*
Y369262D01*
X248900D01*
Y373112D01*
D02*
G37*
G36*
X227550Y383662D02*
X225500D01*
Y382012D01*
X227550D01*
Y383662D01*
D02*
G37*
G36*
X220500D02*
X218450D01*
Y382012D01*
X220500D01*
Y383662D01*
D02*
G37*
G36*
X217250Y380000D02*
X213500D01*
Y376500D01*
X217250D01*
Y380000D01*
D02*
G37*
G36*
X242638Y378362D02*
X240988D01*
Y376312D01*
X242638D01*
Y378362D01*
D02*
G37*
G36*
X235988D02*
X234338D01*
Y376312D01*
X235988D01*
Y378362D01*
D02*
G37*
G36*
X227550Y377012D02*
X225500D01*
Y375362D01*
X227550D01*
Y377012D01*
D02*
G37*
G36*
X220500D02*
X218450D01*
Y375362D01*
X220500D01*
Y377012D01*
D02*
G37*
G36*
X242638Y371312D02*
X240988D01*
Y369262D01*
X242638D01*
Y371312D01*
D02*
G37*
G36*
X235988D02*
X234338D01*
Y369262D01*
X235988D01*
Y371312D01*
D02*
G37*
G36*
X204250Y377500D02*
X203500D01*
Y375750D01*
X204250D01*
Y377500D01*
D02*
G37*
G36*
X200000D02*
X199250D01*
Y375750D01*
X200000D01*
Y377500D01*
D02*
G37*
G36*
X204250Y372250D02*
X203500D01*
Y370500D01*
X204250D01*
Y372250D01*
D02*
G37*
G36*
X200000D02*
X199250D01*
Y370500D01*
X200000D01*
Y372250D01*
D02*
G37*
G36*
X249000Y355039D02*
X248220Y354884D01*
X247558Y354442D01*
X247344Y354121D01*
X244311D01*
X243882Y354036D01*
X243518Y353793D01*
X243518Y353793D01*
X242228Y352503D01*
X241024D01*
X240521Y352403D01*
X240094Y352118D01*
X239809Y351692D01*
X239709Y351189D01*
X239809Y350686D01*
X239918Y350524D01*
X239843Y349872D01*
X239806Y349848D01*
X239460Y349330D01*
X242500D01*
X245540D01*
X245194Y349848D01*
X245157Y349872D01*
X245082Y350524D01*
X245191Y350686D01*
X245291Y351189D01*
X245253Y351378D01*
X245621Y351878D01*
X247344D01*
X247558Y351558D01*
X248220Y351116D01*
X249000Y350961D01*
X249780Y351116D01*
X250442Y351558D01*
X250884Y352220D01*
X251039Y353000D01*
X250884Y353780D01*
X250442Y354442D01*
X249780Y354884D01*
X249000Y355039D01*
D02*
G37*
G36*
X237791Y352189D02*
X234145D01*
Y348149D01*
X237791D01*
Y352189D01*
D02*
G37*
G36*
X232745D02*
X229098D01*
Y348149D01*
X232745D01*
Y352189D01*
D02*
G37*
G36*
X245540Y347930D02*
X242500D01*
X239460D01*
X239585Y347743D01*
X239776Y347350D01*
X239585Y346958D01*
X239460Y346771D01*
X242500D01*
X245540D01*
X245415Y346958D01*
X245224Y347350D01*
X245415Y347743D01*
X245540Y347930D01*
D02*
G37*
G36*
X254750Y333362D02*
X251300D01*
Y329512D01*
X254750D01*
Y333362D01*
D02*
G37*
G36*
X249900D02*
X246450D01*
Y329512D01*
X249900D01*
Y333362D01*
D02*
G37*
G36*
X254750Y328112D02*
X251300D01*
Y324262D01*
X254750D01*
Y328112D01*
D02*
G37*
G36*
X249900D02*
X246450D01*
Y324262D01*
X249900D01*
Y328112D01*
D02*
G37*
G36*
X228550Y338662D02*
X226500D01*
Y337012D01*
X228550D01*
Y338662D01*
D02*
G37*
G36*
X221500D02*
X219450D01*
Y337012D01*
X221500D01*
Y338662D01*
D02*
G37*
G36*
X218250Y335000D02*
X214500D01*
Y331500D01*
X218250D01*
Y335000D01*
D02*
G37*
G36*
X243638Y333362D02*
X241988D01*
Y331312D01*
X243638D01*
Y333362D01*
D02*
G37*
G36*
X236988D02*
X235338D01*
Y331312D01*
X236988D01*
Y333362D01*
D02*
G37*
G36*
X228550Y332012D02*
X226500D01*
Y330362D01*
X228550D01*
Y332012D01*
D02*
G37*
G36*
X221500D02*
X219450D01*
Y330362D01*
X221500D01*
Y332012D01*
D02*
G37*
G36*
X243638Y326312D02*
X241988D01*
Y324262D01*
X243638D01*
Y326312D01*
D02*
G37*
G36*
X236988D02*
X235338D01*
Y324262D01*
X236988D01*
Y326312D01*
D02*
G37*
G36*
X205250Y332500D02*
X204500D01*
Y330750D01*
X205250D01*
Y332500D01*
D02*
G37*
G36*
X201000D02*
X200250D01*
Y330750D01*
X201000D01*
Y332500D01*
D02*
G37*
G36*
X205250Y327250D02*
X204500D01*
Y325500D01*
X205250D01*
Y327250D01*
D02*
G37*
G36*
X201000D02*
X200250D01*
Y325500D01*
X201000D01*
Y327250D01*
D02*
G37*
G36*
X252000Y309039D02*
X251220Y308884D01*
X250827Y308622D01*
X246811D01*
X246382Y308536D01*
X246044Y308311D01*
X245618D01*
X245479Y308403D01*
X244976Y308503D01*
X242024D01*
X241521Y308403D01*
X241094Y308118D01*
X240809Y307692D01*
X240709Y307189D01*
X240809Y306686D01*
X240918Y306524D01*
X240843Y305872D01*
X240806Y305848D01*
X240460Y305330D01*
X243500D01*
X246540D01*
X246381Y305567D01*
X246429Y305770D01*
X246631Y306094D01*
X246929Y306153D01*
X247267Y306379D01*
X250084D01*
X250116Y306220D01*
X250558Y305558D01*
X251220Y305116D01*
X252000Y304961D01*
X252780Y305116D01*
X253442Y305558D01*
X253884Y306220D01*
X254039Y307000D01*
X253884Y307780D01*
X253442Y308442D01*
X252780Y308884D01*
X252000Y309039D01*
D02*
G37*
G36*
X238791Y308189D02*
X235145D01*
Y304149D01*
X238791D01*
Y308189D01*
D02*
G37*
G36*
X233745D02*
X230098D01*
Y304149D01*
X233745D01*
Y308189D01*
D02*
G37*
G36*
X246540Y303930D02*
X243500D01*
X240460D01*
X240806Y303412D01*
Y303289D01*
X240460Y302771D01*
X243500D01*
X246540D01*
X246194Y303289D01*
Y303412D01*
X246540Y303930D01*
D02*
G37*
G36*
X255750Y289362D02*
X252300D01*
Y285512D01*
X255750D01*
Y289362D01*
D02*
G37*
G36*
X250900D02*
X247450D01*
Y285512D01*
X250900D01*
Y289362D01*
D02*
G37*
G36*
X255750Y284112D02*
X252300D01*
Y280262D01*
X255750D01*
Y284112D01*
D02*
G37*
G36*
X250900D02*
X247450D01*
Y280262D01*
X250900D01*
Y284112D01*
D02*
G37*
G36*
X206250Y288500D02*
X205500D01*
Y286750D01*
X206250D01*
Y288500D01*
D02*
G37*
G36*
X202000D02*
X201250D01*
Y286750D01*
X202000D01*
Y288500D01*
D02*
G37*
G36*
X206250Y283250D02*
X205500D01*
Y281500D01*
X206250D01*
Y283250D01*
D02*
G37*
G36*
X202000D02*
X201250D01*
Y281500D01*
X202000D01*
Y283250D01*
D02*
G37*
G36*
X229550Y294662D02*
X227500D01*
Y293012D01*
X229550D01*
Y294662D01*
D02*
G37*
G36*
X222500D02*
X220450D01*
Y293012D01*
X222500D01*
Y294662D01*
D02*
G37*
G36*
X219250Y291000D02*
X215500D01*
Y287500D01*
X219250D01*
Y291000D01*
D02*
G37*
G36*
X244638Y289362D02*
X242988D01*
Y287312D01*
X244638D01*
Y289362D01*
D02*
G37*
G36*
X237988D02*
X236338D01*
Y287312D01*
X237988D01*
Y289362D01*
D02*
G37*
G36*
X229550Y288012D02*
X227500D01*
Y286362D01*
X229550D01*
Y288012D01*
D02*
G37*
G36*
X222500D02*
X220450D01*
Y286362D01*
X222500D01*
Y288012D01*
D02*
G37*
G36*
X244638Y282312D02*
X242988D01*
Y280262D01*
X244638D01*
Y282312D01*
D02*
G37*
G36*
X237988D02*
X236338D01*
Y280262D01*
X237988D01*
Y282312D01*
D02*
G37*
%LPD*%
D10*
X285820Y327650D02*
D03*
X290820Y322650D02*
D03*
X285820D02*
D03*
X280820Y327650D02*
D03*
Y322650D02*
D03*
X290820Y327650D02*
D03*
D11*
X241012Y433700D02*
D03*
X241500Y388512D02*
D03*
X242500Y343512D02*
D03*
X243500Y299512D02*
D03*
D12*
X241012Y436259D02*
D03*
Y438818D02*
D03*
Y441377D02*
D03*
X222508Y433700D02*
D03*
Y436259D02*
D03*
Y438818D02*
D03*
Y441377D02*
D03*
X241500Y391071D02*
D03*
Y393630D02*
D03*
Y396189D02*
D03*
X222996Y388512D02*
D03*
Y391071D02*
D03*
Y393630D02*
D03*
Y396189D02*
D03*
X242500Y346071D02*
D03*
Y348630D02*
D03*
Y351189D02*
D03*
X223996Y343512D02*
D03*
Y346071D02*
D03*
Y348630D02*
D03*
Y351189D02*
D03*
X243500Y302071D02*
D03*
Y304630D02*
D03*
Y307189D02*
D03*
X224996Y299512D02*
D03*
Y302071D02*
D03*
Y304630D02*
D03*
Y307189D02*
D03*
D13*
X231957Y437637D02*
D03*
X232445Y392449D02*
D03*
X233445Y347449D02*
D03*
X234445Y303449D02*
D03*
D14*
X240488Y284812D02*
D03*
X251600D02*
D03*
X239488Y328812D02*
D03*
X250600D02*
D03*
X238488Y373812D02*
D03*
X249600D02*
D03*
X238000Y419000D02*
D03*
X249112D02*
D03*
D15*
X270654Y411000D02*
D03*
X277400D02*
D03*
X269654Y389000D02*
D03*
X276400D02*
D03*
X282347Y362000D02*
D03*
X275600D02*
D03*
D16*
X203750Y285000D02*
D03*
X202750Y329000D02*
D03*
X201750Y374000D02*
D03*
X200750Y419000D02*
D03*
D17*
X213000Y285000D02*
D03*
X212000Y329000D02*
D03*
X211000Y374000D02*
D03*
X210000Y419000D02*
D03*
D18*
X196496Y305012D02*
D03*
X215000D02*
D03*
X195496Y349012D02*
D03*
X214000D02*
D03*
X194496Y394012D02*
D03*
X213000D02*
D03*
X194008Y439200D02*
D03*
X212512D02*
D03*
D19*
X225000Y290512D02*
D03*
Y279400D02*
D03*
X224000Y334512D02*
D03*
Y323400D02*
D03*
X223000Y379512D02*
D03*
Y368400D02*
D03*
X222512Y424700D02*
D03*
Y413588D02*
D03*
D20*
X294094Y287937D02*
D03*
Y284000D02*
D03*
X300000Y287937D02*
D03*
Y284000D02*
D03*
X277331Y404724D02*
D03*
X269850D02*
D03*
Y395276D02*
D03*
D21*
X296063Y287937D02*
D03*
Y284000D02*
D03*
X298031Y287937D02*
D03*
Y284000D02*
D03*
D22*
X295063Y298095D02*
D03*
X299000D02*
D03*
X295063Y304000D02*
D03*
X299000D02*
D03*
D23*
X295063Y300063D02*
D03*
X299000D02*
D03*
X295063Y302031D02*
D03*
X299000D02*
D03*
D24*
X273590Y404724D02*
D03*
D25*
X275559Y395276D02*
D03*
D26*
X286874Y346063D02*
D03*
D27*
X283035Y354035D02*
D03*
X285595D02*
D03*
X288154D02*
D03*
X290713D02*
D03*
Y338287D02*
D03*
X288154D02*
D03*
X285595D02*
D03*
X283035D02*
D03*
D28*
X294748Y350000D02*
D03*
Y347441D02*
D03*
Y344882D02*
D03*
Y342323D02*
D03*
X279000D02*
D03*
Y344882D02*
D03*
Y347441D02*
D03*
Y350000D02*
D03*
D29*
X289600Y298994D02*
X291679Y301073D01*
X292000Y298217D02*
X292600Y297617D01*
Y294006D02*
Y297617D01*
X292000Y298000D02*
Y298217D01*
X289600Y295026D02*
Y298994D01*
X288200Y293831D02*
Y303237D01*
Y293831D02*
X294094Y287937D01*
X288200Y303237D02*
X290685Y305721D01*
X289600Y295026D02*
X293426Y291200D01*
X295994Y292600D02*
X298031Y290563D01*
Y287937D02*
Y290563D01*
X298000Y295158D02*
X300000Y293158D01*
X295063Y298095D02*
X298000Y295158D01*
X297843Y295000D02*
X298000Y295158D01*
X295000Y295000D02*
X297843D01*
X294800Y291200D02*
X296063Y289937D01*
X293426Y291200D02*
X294800D01*
X294006Y292600D02*
X295994D01*
X292600Y294006D02*
X294006Y292600D01*
X284000Y334000D02*
X285000D01*
X285595Y334594D01*
Y338287D01*
X284000Y295192D02*
X292307Y286885D01*
X284000Y295192D02*
Y300000D01*
X296063Y287937D02*
Y289937D01*
X288000Y334000D02*
X288154Y334154D01*
Y338287D01*
X290713Y336287D02*
Y338287D01*
X290685Y305721D02*
X292673D01*
X294079Y304315D01*
Y304000D02*
X295063D01*
X294079D02*
Y304315D01*
X294693Y304370D02*
X295063Y304000D01*
X294693Y304370D02*
Y309000D01*
X299000Y300063D02*
Y302031D01*
X300000Y287937D02*
Y293158D01*
X295063Y299882D02*
Y300063D01*
X293846Y278000D02*
X298031Y282186D01*
Y284000D01*
X295882Y282016D02*
Y284000D01*
X284000Y289000D02*
X290984Y282016D01*
X295882D01*
Y284000D02*
X296063D01*
X299622Y281796D02*
Y283622D01*
X284000Y267000D02*
X284826D01*
X284000Y278000D02*
X293846D01*
X284826Y267000D02*
X299622Y281796D01*
Y283622D02*
X300000Y284000D01*
X299000Y298095D02*
Y300063D01*
Y302031D02*
Y304000D01*
X292307Y284693D02*
Y286885D01*
Y284693D02*
X293000Y284000D01*
X294094D01*
X295031Y302000D02*
X295063Y302031D01*
X292000Y302000D02*
X295031D01*
X291679Y301073D02*
X292000Y301394D01*
Y302000D01*
X291679Y301073D02*
X292000Y301394D01*
Y302000D01*
Y298217D02*
X293665Y299882D01*
X295063D01*
X290713Y336287D02*
X291670Y335331D01*
Y334000D02*
Y335331D01*
X298556Y342323D02*
X298879Y342000D01*
X294748Y342323D02*
X298556D01*
D30*
X280820Y328095D02*
X284225Y331500D01*
X281465Y335000D02*
X282964Y336500D01*
X277000Y335000D02*
X281465D01*
X283035Y336500D02*
Y338287D01*
X282964Y336500D02*
X283035D01*
X298000Y333000D02*
Y334000D01*
X297000Y333000D02*
X298000Y334000D01*
X280820Y327650D02*
Y328095D01*
X279170Y321000D02*
X280820Y322650D01*
X275000Y321000D02*
X279170D01*
X272970Y323030D02*
X275000Y321000D01*
X272970Y323030D02*
Y328000D01*
X268500Y332470D02*
X272970Y328000D01*
X290820Y322650D02*
X291681D01*
X295331Y326300D01*
X297000D01*
X268500Y332470D02*
Y343036D01*
X270014Y410361D02*
X270654Y411000D01*
X283035Y360965D02*
Y361382D01*
Y354035D02*
Y360965D01*
X286000Y358000D01*
X283035Y361382D02*
X283653Y362000D01*
X246500Y307189D02*
X246811Y307500D01*
X243500Y307189D02*
X246500D01*
X246811Y307500D02*
X251500D01*
X252000Y307000D01*
X241012Y441377D02*
Y444867D01*
X241000Y444878D02*
X241012Y444867D01*
X241500Y385500D02*
X242000Y385000D01*
X223000Y368400D02*
X227400Y364000D01*
X228000D01*
X224000Y323400D02*
X228400Y319000D01*
X229000D01*
X225000Y279400D02*
X229400Y275000D01*
X230000D01*
X242500Y340500D02*
X243000Y340000D01*
X242500Y340500D02*
Y343512D01*
X243500Y296500D02*
X244000Y296000D01*
X243500Y296500D02*
Y299512D01*
X226912Y409188D02*
X227512D01*
X222512Y413588D02*
X226912Y409188D01*
X241012Y430688D02*
X241512Y430188D01*
X241012Y430688D02*
Y433700D01*
X241500Y385500D02*
Y388512D01*
X270654Y405528D02*
Y411000D01*
X269850Y404724D02*
X270654Y405528D01*
X269850Y402150D02*
Y404724D01*
Y402150D02*
X272000Y400000D01*
X275000D01*
X277331Y402331D01*
Y404724D01*
X269850Y389197D02*
Y395276D01*
X269654Y389000D02*
X269850Y389197D01*
X269654Y374693D02*
Y389000D01*
Y374693D02*
X282347Y362000D01*
X242500Y351189D02*
X244311Y353000D01*
X249000D01*
X284225Y331500D02*
X292705D01*
X294205Y333000D02*
X297000D01*
X292705Y331500D02*
X294205Y333000D01*
X302000Y323583D02*
X302979Y324562D01*
X297000Y326300D02*
X301379Y330679D01*
Y343781D01*
X297719Y347441D02*
X301379Y343781D01*
X294748Y347441D02*
X297719D01*
X302979Y324562D02*
Y344740D01*
X297719Y350000D02*
X302979Y344740D01*
X294748Y350000D02*
X297719D01*
X271000Y342000D02*
X271323Y342323D01*
X279000D01*
X268500Y343036D02*
X270346Y344882D01*
X279000D01*
X276000Y350000D02*
X279000D01*
X275000Y351000D02*
X276000Y350000D01*
X272000Y349000D02*
X273559Y347441D01*
X279000D01*
X241500Y396189D02*
X244654D01*
X244965Y396500D01*
X247036D01*
X247268Y396268D01*
Y396268D01*
X248000Y397000D01*
D31*
X286834Y330100D02*
X288269Y328665D01*
X284805Y330100D02*
X286834D01*
X283369Y328665D02*
X284805Y330100D01*
X283369Y320466D02*
Y328665D01*
X288269Y325362D02*
Y328665D01*
X284000Y311000D02*
X288369Y315370D01*
Y321635D01*
X274000Y311000D02*
Y311096D01*
X283369Y320466D01*
X288269Y325362D02*
X290820Y322812D01*
Y322650D02*
Y322812D01*
X288369Y321635D02*
Y323565D01*
X286352Y325582D02*
X288369Y323565D01*
X286352Y325582D02*
Y326415D01*
X286703Y326766D01*
X286703D02*
X286703D01*
X285820Y327650D02*
X286703Y326766D01*
X296917Y318500D02*
X302000Y323583D01*
X291505Y318500D02*
X296917D01*
X288369Y321635D02*
X291505Y318500D01*
X288269Y321635D02*
X288369D01*
D32*
X270153Y411500D02*
X270654Y411000D01*
X262500Y411500D02*
X270153D01*
D33*
X275000Y443800D02*
X295000D01*
X262500Y431300D02*
X275000Y443800D01*
X262500Y411500D02*
Y431300D01*
X239488Y317512D02*
X244000Y313000D01*
X238488Y362512D02*
Y373812D01*
X168000Y425000D02*
X183812Y409188D01*
X168000Y291000D02*
X183088Y275912D01*
X218112Y409188D02*
X222512Y413588D01*
X168000Y380000D02*
X183088Y364912D01*
X168000Y336000D02*
X184088Y319912D01*
X262500Y313000D02*
Y359000D01*
Y275136D02*
Y313000D01*
X239488Y317512D02*
Y328812D01*
X240000Y284324D02*
X240488Y284812D01*
X257364Y270000D02*
X262500Y275136D01*
X261000Y413000D02*
X262500Y411500D01*
X238488Y362512D02*
X242000Y359000D01*
X262500D01*
Y411500D01*
X244000Y313000D02*
X262500D01*
X246000Y270000D02*
X257364D01*
X240000Y276000D02*
X246000Y270000D01*
X240000Y276000D02*
Y284324D01*
X241000Y404000D02*
X252000D01*
X261000Y413000D01*
X238000Y407000D02*
Y419000D01*
Y407000D02*
X241000Y404000D01*
X183812Y409188D02*
X218112D01*
X193608Y438800D02*
X194008Y439200D01*
X168000Y438800D02*
X193608D01*
X183088Y364912D02*
X219512D01*
X223000Y368400D01*
X184088Y319912D02*
X219489D01*
X222977Y323400D01*
X224000D01*
X183088Y275912D02*
X221512D01*
X225000Y279400D01*
X168212Y305012D02*
X196496D01*
X168000Y304800D02*
X168212Y305012D01*
X168000Y349800D02*
X194708D01*
X195496Y349012D01*
X168000Y393800D02*
X194284D01*
X194496Y394012D01*
D34*
X223996Y334516D02*
Y343512D01*
X242500D02*
X242612Y343400D01*
X243500Y299512D02*
X243612Y299400D01*
X224996Y290516D02*
Y299512D01*
X241012Y433700D02*
X241124Y433588D01*
X222508Y424704D02*
X222512Y424700D01*
X222508Y424704D02*
Y433700D01*
X241500Y388512D02*
X241612Y388400D01*
X222996Y379516D02*
Y388512D01*
D35*
X224000Y350500D02*
X224500Y350000D01*
X223500D02*
X224000Y350500D01*
X220500Y350000D02*
X223500D01*
X219512Y349012D02*
X220500Y350000D01*
X214000Y349012D02*
X219512D01*
X225000Y306500D02*
X225500Y306000D01*
X224500D02*
X225000Y306500D01*
X221500Y306000D02*
X224500D01*
X220512Y305012D02*
X221500Y306000D01*
X215000Y305012D02*
X220512D01*
X218024Y439200D02*
X219012Y440188D01*
X222012D01*
X212512Y439200D02*
X218024D01*
X222012Y440188D02*
X222512Y440688D01*
X223012Y440188D01*
X213000Y394012D02*
X218512D01*
X219500Y395000D01*
X222500D01*
X223000Y395500D01*
X223500Y395000D01*
D36*
X275819Y325150D02*
D03*
X295819Y329150D02*
D03*
Y321150D02*
D03*
D37*
X168000Y304800D02*
D03*
Y349800D02*
D03*
Y393800D02*
D03*
Y438800D02*
D03*
X295000Y443800D02*
D03*
D38*
X168000Y291000D02*
D03*
Y336000D02*
D03*
Y380000D02*
D03*
Y425000D02*
D03*
X295000Y430000D02*
D03*
D39*
Y412000D02*
D03*
Y402000D02*
D03*
Y392000D02*
D03*
Y382000D02*
D03*
Y372000D02*
D03*
X274000Y311000D02*
D03*
X284000D02*
D03*
Y269000D02*
D03*
X274000D02*
D03*
X284000Y279000D02*
D03*
X274000D02*
D03*
X284000Y289000D02*
D03*
X274000D02*
D03*
X284000Y299000D02*
D03*
X274000D02*
D03*
D40*
X295000Y295000D02*
D03*
X284000Y334000D02*
D03*
X292000Y298000D02*
D03*
X298000Y333000D02*
D03*
X288000Y334000D02*
D03*
X294693Y309000D02*
D03*
X277000Y335000D02*
D03*
X271000Y342000D02*
D03*
X286000Y358000D02*
D03*
X284000Y343000D02*
D03*
X290000Y349000D02*
D03*
Y343000D02*
D03*
X284000Y349000D02*
D03*
X286874Y346063D02*
D03*
X252000Y307000D02*
D03*
X248000Y397000D02*
D03*
X246000Y394000D02*
D03*
X241000Y444878D02*
D03*
X252000Y381000D02*
D03*
X242000Y385000D02*
D03*
X246000Y381000D02*
D03*
X231000Y350000D02*
D03*
X231957Y437637D02*
D03*
X232445Y392449D02*
D03*
X233445Y347449D02*
D03*
X234445Y303449D02*
D03*
X258000Y282000D02*
D03*
X257000Y326000D02*
D03*
X254000Y278000D02*
D03*
X228000Y364000D02*
D03*
X229000Y319000D02*
D03*
X230000Y275000D02*
D03*
X257000Y332000D02*
D03*
X247000Y335000D02*
D03*
Y322000D02*
D03*
Y346000D02*
D03*
X253000Y335000D02*
D03*
Y322000D02*
D03*
X243000Y340000D02*
D03*
X236000Y350000D02*
D03*
Y345000D02*
D03*
X231000D02*
D03*
X258000Y288000D02*
D03*
X248000Y292000D02*
D03*
Y278000D02*
D03*
Y302000D02*
D03*
X251000Y292000D02*
D03*
X248000Y305000D02*
D03*
X244000Y296000D02*
D03*
X237000Y306000D02*
D03*
X232000D02*
D03*
X237000Y301000D02*
D03*
X232000D02*
D03*
X227512Y409188D02*
D03*
X229512Y440188D02*
D03*
X234512D02*
D03*
Y435188D02*
D03*
X229512D02*
D03*
X245512Y439188D02*
D03*
Y436188D02*
D03*
X246000Y426000D02*
D03*
X249000D02*
D03*
X256000Y423000D02*
D03*
Y417000D02*
D03*
X241512Y430188D02*
D03*
X246000Y412000D02*
D03*
X230000Y390000D02*
D03*
X235000D02*
D03*
X230000Y395000D02*
D03*
X235000D02*
D03*
X246000Y391000D02*
D03*
Y367000D02*
D03*
X256000Y377000D02*
D03*
X247000Y349000D02*
D03*
X249000Y353000D02*
D03*
X252000Y367000D02*
D03*
X292000Y302000D02*
D03*
X291670Y334000D02*
D03*
X298879Y342000D02*
D03*
X275000Y351000D02*
D03*
X272000Y349000D02*
D03*
X252000Y426000D02*
D03*
X255000D02*
D03*
X249000Y381000D02*
D03*
X255000D02*
D03*
X249000Y367000D02*
D03*
X255000D02*
D03*
X250000Y335000D02*
D03*
X256000D02*
D03*
X250000Y322000D02*
D03*
X256000D02*
D03*
X257000Y292000D02*
D03*
X254000D02*
D03*
X251000Y278000D02*
D03*
X258000Y285000D02*
D03*
X251000Y303000D02*
D03*
X250000Y347000D02*
D03*
Y344000D02*
D03*
X249000Y392000D02*
D03*
Y389000D02*
D03*
Y437000D02*
D03*
Y434000D02*
D03*
X251000Y300000D02*
D03*
X257000Y329000D02*
D03*
X256000Y374000D02*
D03*
Y420000D02*
D03*
X249000Y412000D02*
D03*
X255000Y414000D02*
D03*
X252000Y412000D02*
D03*
X256000Y371000D02*
D03*
M02*
