G04 Layer_Physical_Order=2*
G04 Layer_Color=16711680*
%FSLAX25Y25*%
%MOIN*%
G70*
G01*
G75*
%ADD29C,0.00800*%
%ADD30C,0.01000*%
%ADD36C,0.03400*%
%ADD37C,0.07200*%
%ADD38R,0.07200X0.07200*%
%ADD39C,0.06000*%
%ADD40C,0.02800*%
G36*
X301000Y447239D02*
X300538Y447048D01*
X298293Y449293D01*
X297929Y449536D01*
X297500Y449622D01*
X297500Y449622D01*
X243500D01*
X243071Y449536D01*
X242707Y449293D01*
X242707Y449293D01*
X240207Y446793D01*
X240160Y446722D01*
X239558Y446320D01*
X239116Y445659D01*
X238961Y444878D01*
X239116Y444098D01*
X239558Y443436D01*
X240220Y442994D01*
X241000Y442839D01*
X241780Y442994D01*
X242442Y443436D01*
X242884Y444098D01*
X243039Y444878D01*
X242884Y445659D01*
X242628Y446042D01*
X243965Y447378D01*
X291986D01*
X292147Y446905D01*
X292004Y446796D01*
X291331Y445918D01*
X290908Y444896D01*
X290764Y443800D01*
X290908Y442704D01*
X291331Y441682D01*
X292004Y440804D01*
X292882Y440131D01*
X293904Y439708D01*
X295000Y439564D01*
X296096Y439708D01*
X297118Y440131D01*
X297995Y440804D01*
X298669Y441682D01*
X299092Y442704D01*
X299236Y443800D01*
X299135Y444572D01*
X299608Y444806D01*
X301000Y443414D01*
Y409586D01*
X296634Y405220D01*
X295940Y405507D01*
X295000Y405631D01*
X294060Y405507D01*
X293184Y405145D01*
X292432Y404567D01*
X291855Y403816D01*
X291493Y402940D01*
X291369Y402000D01*
X291493Y401060D01*
X291855Y400184D01*
X292432Y399432D01*
X293184Y398855D01*
X294060Y398493D01*
X295000Y398369D01*
X295940Y398493D01*
X296634Y398780D01*
X299879Y395535D01*
Y392361D01*
X299416Y392170D01*
X298793Y392793D01*
X298482Y393001D01*
X298145Y393815D01*
X297568Y394567D01*
X296815Y395145D01*
X295940Y395507D01*
X295000Y395631D01*
X294060Y395507D01*
X293184Y395145D01*
X292432Y394567D01*
X291855Y393815D01*
X291568Y393122D01*
X260051D01*
X256086Y397086D01*
X256086Y397086D01*
X255722Y397329D01*
X255293Y397415D01*
X255293Y397415D01*
X249957D01*
X249884Y397780D01*
X249442Y398442D01*
X248780Y398884D01*
X248000Y399039D01*
X247220Y398884D01*
X246558Y398442D01*
X246116Y397780D01*
X245961Y397000D01*
X246116Y396220D01*
X246558Y395558D01*
X247220Y395116D01*
X248000Y394961D01*
X248780Y395116D01*
X248863Y395171D01*
X254829D01*
X258793Y391207D01*
X258793Y391207D01*
X259157Y390964D01*
X259586Y390878D01*
X259586Y390879D01*
X291568D01*
X291855Y390184D01*
X292432Y389433D01*
X293184Y388855D01*
X294060Y388493D01*
X295000Y388369D01*
X295940Y388493D01*
X296815Y388855D01*
X297479Y389364D01*
X297978Y389220D01*
Y384780D01*
X297479Y384636D01*
X296815Y385145D01*
X295940Y385507D01*
X295000Y385631D01*
X294060Y385507D01*
X293184Y385145D01*
X292432Y384567D01*
X291855Y383816D01*
X291493Y382940D01*
X291490Y382920D01*
X278798D01*
X278798Y382920D01*
X278369Y382835D01*
X278005Y382591D01*
X250091Y354677D01*
X249780Y354884D01*
X249000Y355039D01*
X248220Y354884D01*
X247558Y354442D01*
X247116Y353780D01*
X246961Y353000D01*
X247116Y352220D01*
X247558Y351558D01*
X248220Y351116D01*
X248395Y351081D01*
X248571Y350964D01*
X249000Y350878D01*
X249429Y350964D01*
X249442Y350972D01*
X259207Y341207D01*
X259207Y341207D01*
X259571Y340964D01*
X260000Y340879D01*
X269344D01*
X269558Y340558D01*
X270220Y340116D01*
X271000Y339961D01*
X271780Y340116D01*
X271937Y340221D01*
X272378Y339985D01*
Y336122D01*
X271000D01*
X270571Y336036D01*
X270207Y335793D01*
X270207Y335793D01*
X266207Y331793D01*
X265964Y331429D01*
X265878Y331000D01*
X265879Y331000D01*
Y314465D01*
X259535Y308121D01*
X253656D01*
X253442Y308442D01*
X252780Y308884D01*
X252000Y309039D01*
X251220Y308884D01*
X250558Y308442D01*
X250116Y307780D01*
X249961Y307000D01*
X250116Y306220D01*
X250558Y305558D01*
X251220Y305116D01*
X252000Y304961D01*
X252780Y305116D01*
X253442Y305558D01*
X253656Y305878D01*
X260000D01*
X260000Y305878D01*
X260429Y305964D01*
X260793Y306207D01*
X267793Y313207D01*
X267793Y313207D01*
X268036Y313571D01*
X268122Y314000D01*
Y330535D01*
X271465Y333878D01*
X275344D01*
X275558Y333558D01*
X276220Y333116D01*
X277000Y332961D01*
X277780Y333116D01*
X278442Y333558D01*
X278884Y334220D01*
X279039Y335000D01*
X278884Y335780D01*
X278442Y336442D01*
X277780Y336884D01*
X277000Y337039D01*
X276220Y336884D01*
X275558Y336442D01*
X275344Y336122D01*
X274622D01*
Y343965D01*
X274536Y344394D01*
X274293Y344758D01*
X274293Y344758D01*
X272450Y346601D01*
X272595Y347079D01*
X272780Y347116D01*
X273442Y347558D01*
X273884Y348220D01*
X273978Y348693D01*
X274162Y349014D01*
X274521Y349056D01*
X275000Y348961D01*
X275780Y349116D01*
X276442Y349558D01*
X276884Y350220D01*
X277039Y351000D01*
X276964Y351378D01*
X283473Y357887D01*
X284016Y357723D01*
X284116Y357220D01*
X284558Y356558D01*
X285220Y356116D01*
X286000Y355961D01*
X286723Y356105D01*
X298429Y344399D01*
X298284Y343921D01*
X298098Y343884D01*
X297437Y343442D01*
X296995Y342780D01*
X296839Y342000D01*
X296939Y341502D01*
X293358Y337921D01*
X293137Y337590D01*
X293059Y337200D01*
Y336007D01*
X292618Y335771D01*
X292450Y335884D01*
X291670Y336039D01*
X290889Y335884D01*
X290228Y335442D01*
X290085Y335228D01*
X289585D01*
X289442Y335442D01*
X288780Y335884D01*
X288000Y336039D01*
X287220Y335884D01*
X286558Y335442D01*
X286300Y335056D01*
X285700D01*
X285442Y335442D01*
X284780Y335884D01*
X284000Y336039D01*
X283220Y335884D01*
X282558Y335442D01*
X282116Y334780D01*
X281961Y334000D01*
X282116Y333220D01*
X282558Y332558D01*
X282980Y332276D01*
Y316657D01*
X283058Y316267D01*
X283279Y315936D01*
X284144Y315071D01*
X283891Y314617D01*
X283060Y314507D01*
X282185Y314145D01*
X281433Y313567D01*
X280855Y312815D01*
X280493Y311940D01*
X280369Y311000D01*
X280493Y310060D01*
X280855Y309185D01*
X281433Y308433D01*
X282185Y307855D01*
X283060Y307493D01*
X284000Y307369D01*
X284940Y307493D01*
X285816Y307855D01*
X286480Y308366D01*
X286980Y308224D01*
Y301851D01*
X286795Y301724D01*
X286480Y301634D01*
X285816Y302145D01*
X284940Y302507D01*
X284000Y302631D01*
X283060Y302507D01*
X282185Y302145D01*
X281433Y301568D01*
X280855Y300816D01*
X280493Y299940D01*
X280369Y299000D01*
X280493Y298060D01*
X280855Y297184D01*
X281433Y296432D01*
X282185Y295855D01*
X283060Y295493D01*
X284000Y295369D01*
X284940Y295493D01*
X285816Y295855D01*
X286567Y296432D01*
X287145Y297184D01*
X287182Y297275D01*
X287772Y297392D01*
X290285Y294879D01*
X290616Y294658D01*
X291006Y294580D01*
X292994D01*
X293042Y294590D01*
X293116Y294220D01*
X293558Y293558D01*
X294220Y293116D01*
X295000Y292961D01*
X295780Y293116D01*
X296442Y293558D01*
X296884Y294220D01*
X297039Y295000D01*
X296884Y295780D01*
X296442Y296442D01*
X295780Y296884D01*
X295000Y297039D01*
X294502Y296940D01*
X294418Y297024D01*
X294087Y297245D01*
X293897Y297283D01*
X294039Y298000D01*
X293884Y298780D01*
X293442Y299442D01*
X293056Y299700D01*
Y300300D01*
X293442Y300558D01*
X293884Y301220D01*
X294039Y302000D01*
X293884Y302780D01*
X293442Y303442D01*
X292780Y303884D01*
X292689Y303902D01*
Y307499D01*
X293189Y307651D01*
X293251Y307558D01*
X293913Y307116D01*
X294693Y306961D01*
X295474Y307116D01*
X296135Y307558D01*
X296577Y308220D01*
X296732Y309000D01*
X296577Y309780D01*
X296135Y310442D01*
X295474Y310884D01*
X294693Y311039D01*
X294451Y310991D01*
X294089Y311353D01*
Y318879D01*
X294589Y319146D01*
X294903Y318936D01*
X295819Y318754D01*
X296736Y318936D01*
X297514Y319456D01*
X298033Y320233D01*
X298216Y321150D01*
X298033Y322067D01*
X297514Y322844D01*
X296736Y323364D01*
X295819Y323546D01*
X294903Y323364D01*
X294589Y323154D01*
X294089Y323422D01*
Y326878D01*
X294589Y327146D01*
X294903Y326936D01*
X295819Y326754D01*
X296736Y326936D01*
X297514Y327456D01*
X298033Y328233D01*
X298216Y329150D01*
X298033Y330067D01*
X297742Y330502D01*
X298000Y330961D01*
X298780Y331116D01*
X299442Y331558D01*
X299884Y332220D01*
X300039Y333000D01*
X299884Y333780D01*
X299442Y334442D01*
X299121Y334656D01*
Y338379D01*
X299914D01*
X299914Y338378D01*
X300343Y338464D01*
X300500Y338568D01*
X301000Y338314D01*
X301000Y267000D01*
X300344D01*
X300000Y267034D01*
X299656Y267000D01*
X287609D01*
X287275Y267500D01*
X287507Y268060D01*
X287631Y269000D01*
X287507Y269940D01*
X287145Y270815D01*
X286567Y271568D01*
X285816Y272145D01*
X284940Y272507D01*
X284000Y272631D01*
X283060Y272507D01*
X282185Y272145D01*
X281433Y271568D01*
X280855Y270815D01*
X280493Y269940D01*
X280369Y269000D01*
X280493Y268060D01*
X280725Y267500D01*
X280391Y267000D01*
X277951D01*
X277673Y267416D01*
X277897Y267956D01*
X277942Y268300D01*
X274000D01*
X270058D01*
X270103Y267956D01*
X270327Y267416D01*
X270049Y267000D01*
X215000D01*
Y456000D01*
X301000D01*
Y447239D01*
D02*
G37*
G36*
X291855Y380185D02*
X292432Y379433D01*
X293184Y378855D01*
X294060Y378493D01*
X295000Y378369D01*
X295940Y378493D01*
X296815Y378855D01*
X297479Y379364D01*
X297978Y379220D01*
Y374780D01*
X297479Y374636D01*
X296815Y375145D01*
X295940Y375507D01*
X295000Y375631D01*
X294060Y375507D01*
X293184Y375145D01*
X292432Y374568D01*
X291855Y373815D01*
X291493Y372940D01*
X291369Y372000D01*
X291493Y371060D01*
X291592Y370822D01*
X291257Y370321D01*
X287402D01*
X287402Y370322D01*
X286972Y370236D01*
X286609Y369993D01*
X268707Y352091D01*
X268464Y351728D01*
X268378Y351298D01*
X268378Y351298D01*
Y347965D01*
X268378Y347965D01*
X268464Y347535D01*
X268707Y347171D01*
X271411Y344467D01*
X271165Y344006D01*
X271000Y344039D01*
X270220Y343884D01*
X269558Y343442D01*
X269344Y343122D01*
X260465D01*
X251086Y352500D01*
X279263Y380677D01*
X291652D01*
X291855Y380185D01*
D02*
G37*
G36*
X301000Y366498D02*
Y345654D01*
X300538Y345462D01*
X288033Y357968D01*
X288039Y358000D01*
X287884Y358780D01*
X287442Y359442D01*
X286780Y359884D01*
X286277Y359984D01*
X286113Y360527D01*
X290465Y364879D01*
X298263D01*
X298263Y364878D01*
X298692Y364964D01*
X299056Y365207D01*
X300538Y366689D01*
X301000Y366498D01*
D02*
G37*
G36*
X286558Y332558D02*
X287220Y332116D01*
X288000Y331961D01*
X288380Y331649D01*
Y314372D01*
X287918Y314180D01*
X285020Y317079D01*
Y332276D01*
X285442Y332558D01*
X285700Y332944D01*
X286300D01*
X286558Y332558D01*
D02*
G37*
%LPC*%
G36*
X299600Y434600D02*
X295700D01*
Y430700D01*
X299600D01*
Y434600D01*
D02*
G37*
G36*
X294300D02*
X290400D01*
Y430700D01*
X294300D01*
Y434600D01*
D02*
G37*
G36*
X299600Y429300D02*
X295700D01*
Y425400D01*
X299600D01*
Y429300D01*
D02*
G37*
G36*
X294300D02*
X290400D01*
Y425400D01*
X294300D01*
Y429300D01*
D02*
G37*
G36*
X295700Y415942D02*
Y412700D01*
X298942D01*
X298897Y413044D01*
X298494Y414017D01*
X297853Y414853D01*
X297017Y415494D01*
X296044Y415897D01*
X295700Y415942D01*
D02*
G37*
G36*
X294300D02*
X293956Y415897D01*
X292983Y415494D01*
X292147Y414853D01*
X291506Y414017D01*
X291103Y413044D01*
X291058Y412700D01*
X294300D01*
Y415942D01*
D02*
G37*
G36*
X241512Y432227D02*
X240731Y432072D01*
X240070Y431630D01*
X239628Y430969D01*
X239473Y430188D01*
X239628Y429408D01*
X240070Y428746D01*
X240390Y428532D01*
Y423653D01*
X227890Y411152D01*
X227512Y411227D01*
X226731Y411072D01*
X226070Y410630D01*
X225628Y409969D01*
X225473Y409188D01*
X225628Y408408D01*
X226070Y407746D01*
X226731Y407304D01*
X227512Y407149D01*
X228292Y407304D01*
X228954Y407746D01*
X229396Y408408D01*
X229551Y409188D01*
X229476Y409566D01*
X242305Y422395D01*
X242548Y422759D01*
X242633Y423188D01*
X242633Y423188D01*
Y428532D01*
X242954Y428746D01*
X243396Y429408D01*
X243551Y430188D01*
X243396Y430969D01*
X242954Y431630D01*
X242292Y432072D01*
X241512Y432227D01*
D02*
G37*
G36*
X298942Y411300D02*
X295700D01*
Y408058D01*
X296044Y408103D01*
X297017Y408506D01*
X297853Y409147D01*
X298494Y409983D01*
X298897Y410956D01*
X298942Y411300D01*
D02*
G37*
G36*
X294300D02*
X291058D01*
X291103Y410956D01*
X291506Y409983D01*
X292147Y409147D01*
X292983Y408506D01*
X293956Y408103D01*
X294300Y408058D01*
Y411300D01*
D02*
G37*
G36*
X242000Y387039D02*
X241220Y386884D01*
X240558Y386442D01*
X240116Y385780D01*
X239961Y385000D01*
X240116Y384220D01*
X240558Y383558D01*
X240879Y383344D01*
Y378465D01*
X228378Y365964D01*
X228000Y366039D01*
X227220Y365884D01*
X226558Y365442D01*
X226116Y364780D01*
X225961Y364000D01*
X226116Y363220D01*
X226558Y362558D01*
X227220Y362116D01*
X228000Y361961D01*
X228780Y362116D01*
X229442Y362558D01*
X229884Y363220D01*
X230039Y364000D01*
X229964Y364378D01*
X242793Y377207D01*
X243036Y377571D01*
X243122Y378000D01*
X243122Y378000D01*
Y383344D01*
X243442Y383558D01*
X243884Y384220D01*
X244039Y385000D01*
X243884Y385780D01*
X243442Y386442D01*
X242780Y386884D01*
X242000Y387039D01*
D02*
G37*
G36*
X275819Y327546D02*
X274903Y327364D01*
X274125Y326844D01*
X273606Y326067D01*
X273424Y325150D01*
X273606Y324233D01*
X274125Y323456D01*
X274903Y322936D01*
X275819Y322754D01*
X276736Y322936D01*
X277514Y323456D01*
X278033Y324233D01*
X278216Y325150D01*
X278033Y326067D01*
X277514Y326844D01*
X276736Y327364D01*
X275819Y327546D01*
D02*
G37*
G36*
X243000Y342039D02*
X242220Y341884D01*
X241558Y341442D01*
X241116Y340780D01*
X240961Y340000D01*
X241116Y339220D01*
X241558Y338558D01*
X241879Y338344D01*
Y333465D01*
X229378Y320964D01*
X229000Y321039D01*
X228220Y320884D01*
X227558Y320442D01*
X227116Y319780D01*
X226961Y319000D01*
X227116Y318220D01*
X227558Y317558D01*
X228220Y317116D01*
X229000Y316961D01*
X229780Y317116D01*
X230442Y317558D01*
X230884Y318220D01*
X231039Y319000D01*
X230964Y319378D01*
X243793Y332207D01*
X244036Y332571D01*
X244122Y333000D01*
X244122Y333000D01*
Y338344D01*
X244442Y338558D01*
X244884Y339220D01*
X245039Y340000D01*
X244884Y340780D01*
X244442Y341442D01*
X243780Y341884D01*
X243000Y342039D01*
D02*
G37*
G36*
X274000Y314631D02*
X273060Y314507D01*
X272184Y314145D01*
X271432Y313567D01*
X270855Y312815D01*
X270493Y311940D01*
X270369Y311000D01*
X270493Y310060D01*
X270855Y309185D01*
X271432Y308433D01*
X272184Y307855D01*
X273060Y307493D01*
X274000Y307369D01*
X274940Y307493D01*
X275816Y307855D01*
X276568Y308433D01*
X277145Y309185D01*
X277507Y310060D01*
X277631Y311000D01*
X277507Y311940D01*
X277145Y312815D01*
X276568Y313567D01*
X275816Y314145D01*
X274940Y314507D01*
X274000Y314631D01*
D02*
G37*
G36*
X274700Y302942D02*
Y299700D01*
X277942D01*
X277897Y300044D01*
X277494Y301017D01*
X276853Y301853D01*
X276017Y302494D01*
X275044Y302897D01*
X274700Y302942D01*
D02*
G37*
G36*
X273300D02*
X272956Y302897D01*
X271983Y302494D01*
X271147Y301853D01*
X270506Y301017D01*
X270103Y300044D01*
X270058Y299700D01*
X273300D01*
Y302942D01*
D02*
G37*
G36*
X277942Y298300D02*
X274700D01*
Y295058D01*
X275044Y295103D01*
X276017Y295506D01*
X276853Y296147D01*
X277494Y296983D01*
X277897Y297956D01*
X277942Y298300D01*
D02*
G37*
G36*
X273300D02*
X270058D01*
X270103Y297956D01*
X270506Y296983D01*
X271147Y296147D01*
X271983Y295506D01*
X272956Y295103D01*
X273300Y295058D01*
Y298300D01*
D02*
G37*
G36*
X274700Y292942D02*
Y289700D01*
X277942D01*
X277897Y290044D01*
X277494Y291017D01*
X276853Y291853D01*
X276017Y292494D01*
X275044Y292897D01*
X274700Y292942D01*
D02*
G37*
G36*
X273300D02*
X272956Y292897D01*
X271983Y292494D01*
X271147Y291853D01*
X270506Y291017D01*
X270103Y290044D01*
X270058Y289700D01*
X273300D01*
Y292942D01*
D02*
G37*
G36*
X284000Y292631D02*
X283060Y292507D01*
X282185Y292145D01*
X281433Y291567D01*
X280855Y290815D01*
X280493Y289940D01*
X280369Y289000D01*
X280493Y288060D01*
X280855Y287185D01*
X281433Y286433D01*
X282185Y285855D01*
X283060Y285493D01*
X284000Y285369D01*
X284940Y285493D01*
X285816Y285855D01*
X286567Y286433D01*
X287145Y287185D01*
X287507Y288060D01*
X287631Y289000D01*
X287507Y289940D01*
X287145Y290815D01*
X286567Y291567D01*
X285816Y292145D01*
X284940Y292507D01*
X284000Y292631D01*
D02*
G37*
G36*
X277942Y288300D02*
X274700D01*
Y285058D01*
X275044Y285103D01*
X276017Y285506D01*
X276853Y286147D01*
X277494Y286983D01*
X277897Y287956D01*
X277942Y288300D01*
D02*
G37*
G36*
X273300D02*
X270058D01*
X270103Y287956D01*
X270506Y286983D01*
X271147Y286147D01*
X271983Y285506D01*
X272956Y285103D01*
X273300Y285058D01*
Y288300D01*
D02*
G37*
G36*
X274700Y282942D02*
Y279700D01*
X277942D01*
X277897Y280044D01*
X277494Y281017D01*
X276853Y281853D01*
X276017Y282494D01*
X275044Y282897D01*
X274700Y282942D01*
D02*
G37*
G36*
X273300D02*
X272956Y282897D01*
X271983Y282494D01*
X271147Y281853D01*
X270506Y281017D01*
X270103Y280044D01*
X270058Y279700D01*
X273300D01*
Y282942D01*
D02*
G37*
G36*
X244000Y298039D02*
X243220Y297884D01*
X242558Y297442D01*
X242116Y296780D01*
X241961Y296000D01*
X242116Y295220D01*
X242558Y294558D01*
X242879Y294344D01*
Y289465D01*
X230378Y276964D01*
X230000Y277039D01*
X229220Y276884D01*
X228558Y276442D01*
X228116Y275780D01*
X227961Y275000D01*
X228116Y274220D01*
X228558Y273558D01*
X229220Y273116D01*
X230000Y272961D01*
X230780Y273116D01*
X231442Y273558D01*
X231884Y274220D01*
X232039Y275000D01*
X231964Y275378D01*
X244793Y288207D01*
X245036Y288571D01*
X245122Y289000D01*
X245122Y289000D01*
Y294344D01*
X245442Y294558D01*
X245884Y295220D01*
X246039Y296000D01*
X245884Y296780D01*
X245442Y297442D01*
X244780Y297884D01*
X244000Y298039D01*
D02*
G37*
G36*
X284000Y282631D02*
X283060Y282507D01*
X282185Y282145D01*
X281433Y281568D01*
X280855Y280816D01*
X280493Y279940D01*
X280369Y279000D01*
X280493Y278060D01*
X280855Y277185D01*
X281433Y276432D01*
X282185Y275855D01*
X283060Y275493D01*
X284000Y275369D01*
X284940Y275493D01*
X285816Y275855D01*
X286567Y276432D01*
X287145Y277185D01*
X287507Y278060D01*
X287631Y279000D01*
X287507Y279940D01*
X287145Y280816D01*
X286567Y281568D01*
X285816Y282145D01*
X284940Y282507D01*
X284000Y282631D01*
D02*
G37*
G36*
X277942Y278300D02*
X274700D01*
Y275058D01*
X275044Y275103D01*
X276017Y275506D01*
X276853Y276147D01*
X277494Y276983D01*
X277897Y277956D01*
X277942Y278300D01*
D02*
G37*
G36*
X273300D02*
X270058D01*
X270103Y277956D01*
X270506Y276983D01*
X271147Y276147D01*
X271983Y275506D01*
X272956Y275103D01*
X273300Y275058D01*
Y278300D01*
D02*
G37*
G36*
X274700Y272942D02*
Y269700D01*
X277942D01*
X277897Y270044D01*
X277494Y271017D01*
X276853Y271853D01*
X276017Y272494D01*
X275044Y272897D01*
X274700Y272942D01*
D02*
G37*
G36*
X273300D02*
X272956Y272897D01*
X271983Y272494D01*
X271147Y271853D01*
X270506Y271017D01*
X270103Y270044D01*
X270058Y269700D01*
X273300D01*
Y272942D01*
D02*
G37*
%LPD*%
D29*
X293697Y296303D02*
X295000Y295000D01*
X293697Y296303D02*
X293697D01*
X292994Y295600D02*
X293697Y296303D01*
X291006Y295600D02*
X292994D01*
X288000Y301626D02*
Y312657D01*
X284000Y316657D02*
X288000Y312657D01*
X284000Y316657D02*
Y334000D01*
X293070Y310930D02*
X295000Y309000D01*
X294693D02*
X295000D01*
X288200Y298406D02*
Y301426D01*
Y298406D02*
X291006Y295600D01*
X292000Y298000D02*
Y298606D01*
X291670Y302330D02*
X292000Y302000D01*
X288000Y334000D02*
X289400Y332600D01*
X289600Y301006D02*
X292000Y298606D01*
X289600Y301006D02*
Y308563D01*
X289400Y308763D02*
X289600Y308563D01*
X289400Y308763D02*
Y332600D01*
X288000Y301626D02*
X288200Y301426D01*
X293070Y310930D02*
Y332006D01*
X294079Y333015D01*
Y337200D01*
X291670Y302330D02*
Y334000D01*
X294079Y337200D02*
X298879Y342000D01*
D30*
X298000Y333000D02*
Y339000D01*
X298500Y339500D01*
X271000Y335000D02*
X277000D01*
X267000Y331000D02*
X271000Y335000D01*
X267000Y314000D02*
Y331000D01*
X260000Y307000D02*
X267000Y314000D01*
X249500Y352500D02*
X278798Y381798D01*
X249000Y352000D02*
X249500Y352500D01*
X260000Y342000D01*
X271000D01*
X292200Y369200D02*
X295000Y372000D01*
X278798Y381798D02*
X294798D01*
X295000Y382000D01*
X259586Y392000D02*
X295000D01*
X243500Y448500D02*
X297500D01*
X252000Y307000D02*
X260000D01*
X248000Y397000D02*
X248707Y396293D01*
X255293D01*
X259586Y392000D01*
X241000Y444878D02*
Y446000D01*
X243500Y448500D01*
X242000Y378000D02*
Y385000D01*
X243000Y333000D02*
Y340000D01*
X229000Y319000D02*
X243000Y333000D01*
X244000Y289000D02*
Y296000D01*
X230000Y275000D02*
X244000Y289000D01*
X227512Y409188D02*
X241512Y423188D01*
Y430188D01*
X228000Y364000D02*
X242000Y378000D01*
X249000Y353000D02*
X249500Y352500D01*
X249000Y352000D02*
Y353000D01*
X290000Y366000D02*
X298263D01*
X296398Y367600D02*
X299100Y370302D01*
X298500Y339500D02*
X299914D01*
X301379Y340965D01*
Y343036D01*
X286000Y358000D02*
X286414D01*
X301379Y343036D01*
X295000Y392000D02*
X298000D01*
X299100Y390900D01*
Y370302D02*
Y390900D01*
X298263Y366000D02*
X301000Y368737D01*
Y396000D01*
X295000Y402000D02*
X301000Y396000D01*
X295000Y402000D02*
X303000Y410000D01*
Y443000D01*
X297500Y448500D02*
X303000Y443000D01*
X288065Y367600D02*
X296398D01*
X287402Y369200D02*
X292200D01*
X272500Y352035D02*
X288065Y367600D01*
X275000Y351000D02*
X290000Y366000D01*
X269500Y351298D02*
X287402Y369200D01*
X269500Y347965D02*
Y351298D01*
Y347965D02*
X273500Y343965D01*
Y335000D02*
Y343965D01*
X272500Y349500D02*
Y352035D01*
X272000Y349000D02*
X272500Y349500D01*
D36*
X275819Y325150D02*
D03*
X295819Y329150D02*
D03*
Y321150D02*
D03*
D37*
X168000Y304800D02*
D03*
Y349800D02*
D03*
Y393800D02*
D03*
Y438800D02*
D03*
X295000Y443800D02*
D03*
D38*
X168000Y291000D02*
D03*
Y336000D02*
D03*
Y380000D02*
D03*
Y425000D02*
D03*
X295000Y430000D02*
D03*
D39*
Y412000D02*
D03*
Y402000D02*
D03*
Y392000D02*
D03*
Y382000D02*
D03*
Y372000D02*
D03*
X274000Y311000D02*
D03*
X284000D02*
D03*
Y269000D02*
D03*
X274000D02*
D03*
X284000Y279000D02*
D03*
X274000D02*
D03*
X284000Y289000D02*
D03*
X274000D02*
D03*
X284000Y299000D02*
D03*
X274000D02*
D03*
D40*
X295000Y295000D02*
D03*
X284000Y334000D02*
D03*
X292000Y298000D02*
D03*
X298000Y333000D02*
D03*
X288000Y334000D02*
D03*
X294693Y309000D02*
D03*
X277000Y335000D02*
D03*
X271000Y342000D02*
D03*
X286000Y358000D02*
D03*
X284000Y343000D02*
D03*
X290000Y349000D02*
D03*
Y343000D02*
D03*
X284000Y349000D02*
D03*
X286874Y346063D02*
D03*
X252000Y307000D02*
D03*
X248000Y397000D02*
D03*
X246000Y394000D02*
D03*
X241000Y444878D02*
D03*
X252000Y381000D02*
D03*
X242000Y385000D02*
D03*
X246000Y381000D02*
D03*
X231000Y350000D02*
D03*
X231957Y437637D02*
D03*
X232445Y392449D02*
D03*
X233445Y347449D02*
D03*
X234445Y303449D02*
D03*
X258000Y282000D02*
D03*
X257000Y326000D02*
D03*
X254000Y278000D02*
D03*
X228000Y364000D02*
D03*
X229000Y319000D02*
D03*
X230000Y275000D02*
D03*
X257000Y332000D02*
D03*
X247000Y335000D02*
D03*
Y322000D02*
D03*
Y346000D02*
D03*
X253000Y335000D02*
D03*
Y322000D02*
D03*
X243000Y340000D02*
D03*
X236000Y350000D02*
D03*
Y345000D02*
D03*
X231000D02*
D03*
X258000Y288000D02*
D03*
X248000Y292000D02*
D03*
Y278000D02*
D03*
Y302000D02*
D03*
X251000Y292000D02*
D03*
X248000Y305000D02*
D03*
X244000Y296000D02*
D03*
X237000Y306000D02*
D03*
X232000D02*
D03*
X237000Y301000D02*
D03*
X232000D02*
D03*
X227512Y409188D02*
D03*
X229512Y440188D02*
D03*
X234512D02*
D03*
Y435188D02*
D03*
X229512D02*
D03*
X245512Y439188D02*
D03*
Y436188D02*
D03*
X246000Y426000D02*
D03*
X249000D02*
D03*
X256000Y423000D02*
D03*
Y417000D02*
D03*
X241512Y430188D02*
D03*
X246000Y412000D02*
D03*
X230000Y390000D02*
D03*
X235000D02*
D03*
X230000Y395000D02*
D03*
X235000D02*
D03*
X246000Y391000D02*
D03*
Y367000D02*
D03*
X256000Y377000D02*
D03*
X247000Y349000D02*
D03*
X249000Y353000D02*
D03*
X252000Y367000D02*
D03*
X292000Y302000D02*
D03*
X291670Y334000D02*
D03*
X298879Y342000D02*
D03*
X275000Y351000D02*
D03*
X272000Y349000D02*
D03*
X252000Y426000D02*
D03*
X255000D02*
D03*
X249000Y381000D02*
D03*
X255000D02*
D03*
X249000Y367000D02*
D03*
X255000D02*
D03*
X250000Y335000D02*
D03*
X256000D02*
D03*
X250000Y322000D02*
D03*
X256000D02*
D03*
X257000Y292000D02*
D03*
X254000D02*
D03*
X251000Y278000D02*
D03*
X258000Y285000D02*
D03*
X251000Y303000D02*
D03*
X250000Y347000D02*
D03*
Y344000D02*
D03*
X249000Y392000D02*
D03*
Y389000D02*
D03*
Y437000D02*
D03*
Y434000D02*
D03*
X251000Y300000D02*
D03*
X257000Y329000D02*
D03*
X256000Y374000D02*
D03*
Y420000D02*
D03*
X249000Y412000D02*
D03*
X255000Y414000D02*
D03*
X252000Y412000D02*
D03*
X256000Y371000D02*
D03*
M02*
