M48
;Layer_Color=9474304
;FILE_FORMAT=2:5
INCH,LZ
;TYPE=PLATED
T1F00S00C0.01400
T2F00S00C0.04000
T3F00S00C0.04800
T4F00S00C0.12800
;TYPE=NON_PLATED
T5F00S00C0.03500
%
T01
X023Y0275
X0248Y0278
X0251
X0254
X0258Y0282
Y0285
Y0288
X0257Y0292
X0254
X0251
X0248
X0244Y0296
X0248Y0302
Y0305
X0251Y0303
Y03
X0252Y0307
X0237Y0306
X0232
X0234445Y0303449
X0232Y0301
X0237
X0292Y0302
Y0298
X0295Y0295
X0294693Y0309
X0298Y0333
X029167Y0334
X0288
X0284
X0277Y0335
X0271Y0342
X0272Y0349
X0275Y0351
X0284Y0349
X0286874Y0346063
X0284Y0343
X029
Y0349
X0286Y0358
X0298879Y0342
X0256Y0335
X0253
X025
X0247
X0243Y034
X0247Y0346
Y0349
X025Y0347
Y0344
X0249Y0353
Y0367
X0246
X0252
X0255
X0256Y0371
Y0374
Y0377
X0255Y0381
X0252
X0249
X0246
X0242Y0385
X0246Y0391
Y0394
X0248Y0397
X0249Y0392
Y0389
X0235Y039
X023
X0232445Y0392449
X023Y0395
X0235
X0227512Y0409188
X0246Y0412
X0249
X0252
X0255Y0414
X0256Y0417
Y042
Y0423
X0255Y0426
X0252
X0249
X0246
X0241512Y0430188
X0245512Y0436188
Y0439188
X0249Y0437
Y0434
X0234512Y0435188
Y0440188
X0229512
X0231957Y0437637
X0229512Y0435188
X0241Y0444878
X0228Y0364
X0231Y035
X0233445Y0347449
X0231Y0345
X0236
Y035
X0229Y0319
X0247Y0322
X025
X0253
X0256
X0257Y0326
Y0329
Y0332
T02
X0274Y0269
X0284
Y0279
X0274
Y0289
X0284
Y0299
X0274
Y0311
X0284
X0295Y0372
Y0382
Y0392
Y0402
Y0412
T03
X0168Y0291
Y03048
Y0336
Y03498
Y038
Y03938
Y0425
Y04388
X0295Y04438
Y043
T04
X016Y026
X03
Y0465
X016
T05
X0275819Y032515
X0295819Y032915
Y032115
M30
